<svg xmlns="http://www.w3.org/2000/svg" viewBox="0 0 361.01 104.84"><title>clearedAsset 1black</title><g id="Layer_2" data-name="Layer 2"><g id="svg"><g id="svgg"><path id="path0" d="M24.14,54.68a15,15,0,0,0-3.72,3c-.17.16-.41.13-1.18-.14L17.6,57,16,56.39c-2.83-1-6.31.35-7,2.74-.05.18-.33,1-.62,1.75s-.6,1.61-.67,1.83S7.3,63.77,7,64.55s-.59,1.6-.66,1.83S6,67.44,5.68,68.21s-.63,1.72-.75,2.09-.38,1.08-.58,1.58-.47,1.22-.59,1.58S3.3,74.77,3,75.55s-.63,1.71-.75,2.08c-.31.9-.8,2.26-1.33,3.67C-.11,84-.24,85.21.34,86.75c.8,2.12-.56,1.52,22.42,9.91l19.5,7.11,1.59,0c3.74,0,3.46.49,9-14.76l4.57-12.57V75.13a5,5,0,0,0-3.24-4.89c-.32-.09-1.11-.37-1.75-.61S51,69.08,50.6,69l-1.84-.67-1.83-.67c-.37-.12-1.19-.42-1.83-.66L43,66.19a9.22,9.22,0,0,0-1.54-.43c-.8-.1-.74,0-1-2.37a14.61,14.61,0,0,0-.54-2.64,3.24,3.24,0,0,1-.24-.72c0-.06-.18-.29-.43-.52-.41-.39-1.11-.7-3.66-1.63l-1.75-.66a5.22,5.22,0,0,0-1.13-.34.74.74,0,0,1-.42-.15,5.78,5.78,0,0,0-1.15-.49c-.55-.19-1.53-.53-2.17-.77-3-1.12-3.6-1.22-4.79-.79M31,60.53l5.42,2,0,.48a35,35,0,0,0,.81,5.51.63.63,0,0,0,.52.18c.34,0,14.38,5,15.31,5.47.75.39.71.68-.63,4.31-.72,2-1.08,3-1.32,3.67-.13.37-.43,1.19-.67,1.83s-.55,1.47-.68,1.84-.42,1.19-.66,1.83-.54,1.47-.66,1.83-.42,1.2-.67,1.84-.55,1.46-.67,1.83L46.43,95c-.7,1.88-1.26,3.47-1.43,4-.26.87-1,1.14-1.93.76l-1.77-.67-1.91-.7-3.59-1.3-1.87-.68-1.83-.67-1.84-.66-1.83-.67-1.83-.67-1.84-.66-1.83-.67-1.83-.67-1.84-.66-1.79-.66C15.75,89.76,9,87.31,7.93,87l-1.82-.65A3.91,3.91,0,0,0,4.82,86c-.23.15-.81-.59-.81-1s8.56-24.14,8.87-24.52c.53-.63.87-.58,4.49.73,4.12,1.49,3.52,1.57,6.13-.84a24.91,24.91,0,0,1,2-1.76c.05,0,2.53.89,5.51,2m-8.75,8.26a10,10,0,0,0-7.44,11.84c2.27,9.94,16.61,9.93,19,0,1-4.41-1.37-9.57-5.26-11.23a10.71,10.71,0,0,0-6.25-.6m22.79,5.78c-1.84.91-2.11,4.38-.36,4.62,2.42.34,3.49-.19,3.76-1.85.36-2.2-1.5-3.71-3.4-2.77m1.76,1.51c.8.8-.64,2.47-1.47,1.71a1.12,1.12,0,0,1,.73-1.91,1.26,1.26,0,0,1,.74.2" style="fill:#fb0404;fill-rule:evenodd"/><path id="path1" d="M2.68,16.84c0,17.51,0,18.8.74,20.69a5,5,0,0,1,.26.95c0,.7,2.09,4.48,3.41,6.17,4.71,6,11,8.65,20.42,8.65,11.24,0,19-4.15,22.66-12.14C52,37.21,52.05,36.42,52,16.71L51.93.8,51.55.74c-.24,0-.37-.16-.37-.37S51,.05,45,.05H38.86l-.07,15c-.06,16.52,0,15.94-1.11,18.51A11.09,11.09,0,0,1,33,39.1c-4.52,2.34-11.75,1.4-14.48-1.88a13.67,13.67,0,0,1-1.72-2.86c-.9-2.23-.88-1.75-1-18.23L15.76.8,15.39.74C15.15.71,15,.58,15,.37S14.83.05,8.85.05H2.68V16.84M60.85,31.55c0,31.44,0,31.52.33,31.41s.33,0,.33.33c0,.55-.22.57,2.34-.24l9.62-3,.54-.16V50.22c0-7.66,0-9.67.22-9.81a59.13,59.13,0,0,1,7.29-.23l7.08-.06,1.79-.61c7.71-2.64,11.71-9.12,11.71-19,0-10.19-4.51-17.12-13-19.95L87.76.14,74.3.08,60.85,0V31.55M136.68.21a35.4,35.4,0,0,0-23.82,12c-1.1,1.31-3.85,6.26-3.85,6.92a5.15,5.15,0,0,1-.32,1.05c-1.92,5-2.22,14.39-.65,20.5,1.64,6.4,4.31,10.51,10.31,15.82a42.28,42.28,0,0,0,9,4.75l1.67.58c4.23,1.56,7.89,2,16.87,1.9l6.41,0V32.13l-.37-.05c-.24,0-.38-.17-.38-.38s-.23-.32-12.21-.28l-12.2,0,0,1A12.72,12.72,0,0,0,138,44.15l1,.11L139,47.53l0,3.27-.39.05c-1.5.22-8.39-1.84-10-3a2.22,2.22,0,0,0-.55-.31,4.75,4.75,0,0,1-.81-.46C122.38,44,120,39,120,32.23a20.49,20.49,0,0,1,1.39-7.81,2.59,2.59,0,0,0,.27-.69c0-.9,2.79-4.46,4.57-5.84a16.06,16.06,0,0,1,4.12-2.57c4.36-2.11,5.62-2.32,14.69-2.4l7.29-.06,0-6-.05-6-.37-.06c-.24,0-.38-.16-.38-.37S140.82-.08,136.68.21m24.83,31.33c0,31.4,0,31.51.34,31.51a.29.29,0,0,1,.33.33c0,.33.11.33,6.25.33h6.25l0-11.7,0-11.71,2.42,0,2.42,0,.71,1.7c.73,1.73,1.1,2.57,1.67,3.84.18.39.83,1.87,1.44,3.29l1.34,3.08c.12.28,1,2.26,1.92,4.42s1.83,4.21,2,4.58a8.51,8.51,0,0,1,.4,1,3.59,3.59,0,0,0,.68,1l.58.61H202.7l-.11-.37c-.06-.21-.28-.75-.48-1.21-.38-.82-1.77-4-2.18-5-.12-.27-.86-2-1.66-3.83l-1.59-3.67-1.34-3.08-1.4-3.25c-.3-.7-.81-1.85-1.23-2.8-.56-1.23-.5-1.53.43-2,5.72-3.24,8.53-7.48,9.31-14.07a27.75,27.75,0,0,0-.61-10.5,16.48,16.48,0,0,0-2-4.84,20.22,20.22,0,0,0-10-8.46L188.6.13l-13.55,0L161.51,0V31.54M232.19,1.42c-.29.76-.67,1.7-.85,2.09a4.32,4.32,0,0,0-.33.88,4.43,4.43,0,0,1-.31.87c-.18.39-.49,1.15-.69,1.7s-.5,1.34-.67,1.75c-.57,1.46-.82,2.1-1.25,3.25-.24.65-.57,1.51-.74,1.92s-.48,1.2-.68,1.75-.5,1.34-.66,1.75c-.57,1.45-.82,2.1-1.25,3.25-.24.64-.57,1.51-.75,1.92s-.47,1.2-.67,1.75-.5,1.34-.67,1.75-.5,1.27-.74,1.91c-.66,1.79-.92,2.44-1.27,3.22a4.32,4.32,0,0,0-.32.91A3.3,3.3,0,0,1,220,33a3.75,3.75,0,0,0-.33.93.74.74,0,0,1-.15.42,18.79,18.79,0,0,0-1.19,3c-.17.46-.47,1.24-.67,1.75s-.47,1.21-.6,1.58-.3.82-.39,1-.27.63-.4,1-.4,1.08-.6,1.58-.5,1.3-.67,1.75-.46,1.23-.65,1.71l-.69,1.75c-.19.48-.48,1.25-.65,1.71s-.47,1.25-.67,1.75-.5,1.29-.67,1.75-.47,1.25-.67,1.75-.47,1.22-.6,1.58-.31.82-.4,1-.26.64-.39,1c-.22.61-.73,1.92-1,2.62-.09.22,0,.31.3.39a.73.73,0,0,1,.5.43c.08.3.31.31,6.16.31h6.07l.71-1.62c.4-.89.81-1.85.92-2.13s.4-1,.63-1.5c.52-1.23,1.7-4.07,2.12-5.08.93-2.29,1.21-3,1.34-3.25S228.42,47.54,229,46c.17-.44.46-1.15.63-1.59.34-.84,1.81-4.43,2.36-5.75L232.7,37c.67-1.68,1-2.55,1.24-3,.52-1.21,1.47-3.55,1.68-4.14.35-.95.71-1.61.9-1.61s.16,4.86.16,13.52c0,13.44,0,13.52.33,13.44s.34,0,.34.31.09.4.2.4,4.36-1.25,4.6-1.4,1.47-.51,3.06-1c4.28-1.34,4.46-1.41,4.56-1.82,0-.19.06-11.68,0-25.52L249.76,1,249.39.8A.61.61,0,0,1,249,.34c0-.27-.47-.29-8.14-.29h-8.15l-.53,1.37m27.32,24.21c0,25.06,0,25.62.32,25.7a.59.59,0,0,1,.39.36c.06.2,1.38.7,4.64,1.76l6,2a13,13,0,0,0,1.62.47c.17,0,.21-4.37.21-21.31,0-18.5,0-21.34.24-21.52.43-.35,9.49-.12,11.26.29q8.49,2,12,6.62c3.48,4.59,4.46,12.83,2.22,18.7-.23.63-.51,1.37-.62,1.65a7.11,7.11,0,0,1-.49.95,2.25,2.25,0,0,0-.29.54c0,.61-2.94,3.82-4.33,4.73a11,11,0,0,0-1,.7c-.07.09-1.59.93-2.62,1.46-2.88,1.47-5.64,2.06-10,2.15l-3.54.07v6c0,5.77,0,6,.32,6.09a.59.59,0,0,1,.4.4c.23.88,8.52.24,13.53-1,9.71-2.49,17.89-9.16,20.68-16.85,4.29-11.85,2.67-25-4.06-33a34.64,34.64,0,0,0-9-7.56,49.28,49.28,0,0,0-12-4.28L283.26.17,271.39.09,259.51,0V25.63M319.78.31c-.13.35-.13,62.13,0,62.47a.47.47,0,0,0,.42.27.29.29,0,0,1,.31.33c0,.33.11.33,20.25.33H361V57.63c0-6,0-6.08-.33-6.08s-.33-.11-.33-.34-.12-.33-13.67-.33H333V45.75c0-3.77.05-5.19.2-5.34s2.6-.2,10-.2H353v-6c0-5.88,0-6-.33-6.1a.44.44,0,0,1-.33-.4c0-.31-.32-.32-9.67-.32H333l0-7.21L333.1,13l13.95,0,14,0v-6c0-5.87,0-6-.33-6.1a.43.43,0,0,1-.33-.4c0-.45-40.4-.5-40.57,0M82.87,13.12c5,1,7.11,4.31,5.74,8.93-1.23,4.1-3.62,5.33-10.38,5.33h-4v-7c0-3.85,0-7.11.1-7.25.14-.37,6.74-.39,8.59,0m101.48.1c2.12.58,3.61,1.49,4.24,2.61A8.1,8.1,0,0,1,187,25.48c-1.85,1.58-3.29,1.9-8.52,1.9h-3.75V20.24c0-3.92,0-7.19.11-7.25.3-.3,8.3-.11,9.56.23M24.68,59.43C20.86,63,21.33,62.77,19.33,62l-1.82-.65c-.23-.07-1.15-.4-2-.72C13.59,60,13.22,60,12.78,61c-.64,1.45-8.6,23.62-8.6,23.94s.45.91.69.91c0,0,.1-.22.11-.49a2,2,0,0,1,.2-.84c.1-.2.32-.75.49-1.22.3-.89,1.8-5,2.36-6.57.18-.48.48-1.29.66-1.79s.48-1.33.67-1.83L10,71.3c.19-.5.49-1.33.67-1.83s.48-1.33.67-1.83L12,65.8c.19-.5.49-1.33.67-1.83,1.33-3.64,1-3.51,5.07-2,.64.24,1.47.54,1.84.66s.94.34,1.28.49c.85.36,1,.34,1.64-.28l2.11-1.92a13.24,13.24,0,0,1,1.66-1.37c.14,0,3.56,1.21,6.22,2.2l1.84.67c.5.18,1.16.44,1.47.57.5.21.55.21.5-.05S36,62.51,31.93,61l-3.75-1.37c-.51-.18-1.27-.47-1.7-.64-1-.41-.93-.42-1.8.4m15.4,1.2a25,25,0,0,1,.48,2.61c.31,2.08.37,2.29.71,2.35s.35,0,.31-.19-.18-1.06-.33-2c-.29-1.81-.51-2.44-1-2.84-.26-.22-.28-.21-.16.09m-2.4,8.21c0,.32.43.53,3.24,1.55l1.84.67,1.83.67,1.83.66,1.8.65c2.16.78,2.92,1.06,3.63,1.34,1.37.54,1.8.59,1.42.18a2.18,2.18,0,0,0-.82-.5c-.29-.08-1.16-.39-1.94-.68l-1.83-.67c-.23-.07-1.06-.37-1.83-.66L45,71.38c-.23-.07-1-.37-1.83-.67l-1.83-.66c-.44-.15-2.88-1-3.38-1.25-.16-.07-.29,0-.29,0m22.5,17.89c0,16.93,0,17,.33,16.9s.34,0,.34.32c0,.57,0,.58,3.5-.61l3.08-1,0-5.21,0-5.21h3.12c4.28,0,5.68-.35,7.78-2,5.22-4,4.26-16-1.5-18.86a5.73,5.73,0,0,1-.76-.47c-.92-.75-2.24-.88-9.27-.88H60.18v17m24.5-.08c0,16.52,0,16.93.32,17a.66.66,0,0,1,.4.4c.08.3.27.32,3.35.32H92V91.88h9.17v3.75c0,3.6,0,3.75.32,3.75s.34.14.38.38c.06.43.58.44,1.6,0a8.24,8.24,0,0,1,1.12-.38c.53-.14,1.6-.51,3-1l.87-.33,0-13.77,0-13.78-.38,0a.37.37,0,0,1-.37-.37c0-.31-.15-.33-3.25-.33h-3.25V84.38H92v-7c0-6.89,0-7-.33-7a.29.29,0,0,1-.33-.33c0-.32-.12-.34-3.34-.34H84.68V86.65M125.35,70c-3.16.64-8.31,3.56-9,5.1a2.26,2.26,0,0,1-.35.42c-3,2.92-4.75,9.35-3.86,14.19A18.86,18.86,0,0,0,119.23,101l.65.45L123,98.34c3.23-3.28,3.3-3.38,2.65-3.63-.23-.08-.42-.27-.42-.41a.24.24,0,0,0-.22-.25c-.55,0-2-1.46-2.73-2.69a8.39,8.39,0,0,1,2.71-10.89,7.88,7.88,0,0,1,9.6.79c5,5,.49,14.4-6.64,13.67l-.89-.1-3.12,3.22c-3.6,3.7-3.38,3.38-2.77,4,1.23,1.28,4.9,2.32,8.23,2.32,14.49,0,22.07-17.76,12.17-28.56a24.79,24.79,0,0,0-2.08-2,9,9,0,0,0-2.27-1.59.15.15,0,0,1-.16-.13,13.32,13.32,0,0,0-2.88-1.45,18.93,18.93,0,0,0-8.78-.63m19.66,3c0,3.22,0,3.33.34,3.33a.29.29,0,0,1,.33.33c0,.33.11.34,3.83.34h3.84V90.38c0,13.22,0,13.33.33,13.33a.3.3,0,0,1,.33.34c0,.32.11.33,3.25.33h3.25l0-13.62,0-13.63,4.12,0,4.13,0V70.38h-.43c-.35,0-.41-.06-.32-.33s0-.34-11.49-.34H145v3.34m36.34-3a17.1,17.1,0,0,0-11.48,24.41,11.84,11.84,0,0,0,.9,1.6.93.93,0,0,1,.24.46c0,.11.06.19.13.19s.26.21.41.46c.59,1,4,4.21,4.42,4.21.17,0,6.21-6.15,6.21-6.33s-.19-.2-.42-.3-.41-.3-.41-.43-.19-.28-.42-.34c-1.13-.28-3-2.91-3.4-4.73C176,82,183.81,76.53,189.92,80.59c3.1,2,3.84,8,1.37,10.9-2.26,2.66-4.46,3.71-7.25,3.43l-.89-.08L180,98c-3.46,3.51-3.38,3.38-2.63,4.09,2.8,2.64,10.79,3,15.24.67a17.22,17.22,0,0,0,5.83-26.06,30.16,30.16,0,0,0-3.23-3.19c-.11,0-.2-.07-.2-.15,0-.24-1.51-1.21-3.08-2A12.51,12.51,0,0,0,188,70a17.8,17.8,0,0,0-6.63,0m38.08-.14c-.37.08-1,.19-1.42.24a17,17,0,0,0-11.12,7.32C204.61,81,204,88,205.56,92.88a12.27,12.27,0,0,0,1.87,3.84.64.64,0,0,1,.25.4,31.9,31.9,0,0,0,4.42,4.29c5.06,2.62,6.49,3,12.45,3h3.8V87.21h-.44c-.35,0-.42-.06-.35-.33s0-.33-6.23-.33H215v.74a8,8,0,0,0,1.2,3.44,8.29,8.29,0,0,0,1.95,2,.18.18,0,0,1,.19.15,6,6,0,0,0,2.29,1l.54.1v3l-1-.1c-2.57-.25-5.65-1.87-6.72-3.53-2.76-4.31-1.8-11,2-13.81,2.58-1.93,4.62-2.43,9.89-2.44h3V70.38h-.44c-.35,0-.42-.06-.35-.33s-6.62-.49-8.13-.14m13.25,16.8c0,16.89,0,17,.33,17a.3.3,0,0,1,.34.34c0,.33.08.34,3.29.29l3.29,0L240,98l.05-6.3h1.07c1,0,1.08,0,1.18.38s.41,1.09.77,2,.86,2,1.08,2.58.52,1.23.64,1.5.41,1,.63,1.5c1.25,3.09,1.73,4.07,2,4.14a.4.4,0,0,1,.29.35c0,.23.39.26,3.33.26,3.54,0,3.52,0,3.09-.82-.13-.26-.35-.76-.48-1.12s-.55-1.39-.94-2.31c-1.67-4-2.05-4.87-2.33-5.58l-.83-2c-.59-1.43-.58-1.5.25-1.89.32-.15.58-.34.58-.42a.16.16,0,0,1,.18-.15,6.06,6.06,0,0,0,1.82-1.78c0-.12.06-.22.13-.22.68,0,1.71-3.6,1.82-6.34.16-4.15-.82-6.72-3.6-9.47-2.53-2.49-2.69-2.53-11.2-2.53h-6.82v17M269,70.34c-.09.34-.37,1.15-.62,1.79l-.75,2-.74,2c-.24.64-.48,1.32-.53,1.5a7.62,7.62,0,0,1-.31.83c-.28.66-.89,2.35-1.11,3.09a3.13,3.13,0,0,1-.3.75,3.51,3.51,0,0,0-.31.75c-.16.55-.95,2.74-1.43,4s-1.12,3-1.34,3.58c-.12.37-.43,1.19-.67,1.83s-.51,1.36-.58,1.59-.34.94-.59,1.58-.55,1.47-.67,1.83c-.22.64-.39,1.11-1.56,4.25-.61,1.66-.64,2-.18,2a.3.3,0,0,1,.33.34c0,.32.11.33,3.21.33h3.21l.44-1c.25-.57.65-1.56.89-2.2s.55-1.39.68-1.67.53-1.33.91-2.34c.65-1.74.91-2.4,1.65-4.21.18-.43.63-1.61,1-2.62.64-1.7,1-2.7,1.47-3.75.12-.3.18,1.46.18,6.21,0,6.51,0,6.62.35,6.62a.29.29,0,0,1,.33.32c0,.6.21.57,3.34-.49,2.26-.76,2.88-1,3.12-1.31s.32-26.69.11-27.25a.48.48,0,0,0-.42-.27.29.29,0,0,1-.31-.33c0-.33-.12-.34-4.32-.34h-4.31l-.18.63m14,16.39c0,16.94,0,17,.34,16.94s.33,0,.33.33.06.41.37.33c.81-.2,1.58-.43,2.38-.71,1.89-.66,2.53-.88,3.21-1.08l.71-.21V91.91l3.62-.07c3.89-.09,4.58-.21,6.17-1.09,5.55-3.06,6.34-13.54,1.38-18.25-2.84-2.69-3.24-2.79-11.8-2.79H283v17m24.67,0c0,16.89,0,17,.33,17a.3.3,0,0,1,.34.34c0,.33.08.34,3.29.29l3.29,0,0-6.21,0-6.21h9.16v3.75c0,3.64,0,3.75.33,3.75s.34.11.34.4.83.38,1.72-.1a4.9,4.9,0,0,1,.85-.31c.53-.13,1.59-.48,3.05-1l.88-.33V84.2c0-13.71,0-13.82-.34-13.82a.29.29,0,0,1-.33-.33c0-.32-.11-.34-3.25-.34h-3.25l0,7.3,0,7.29-4.54,0-4.54,0,0-7,0-7-.38,0a.37.37,0,0,1-.37-.37c0-.31-.15-.33-3.25-.33h-3.25v17M334,69.89A9.62,9.62,0,0,0,335.09,72c.22.37.46.78.52.92s.55,1,1.07,1.92,1.17,2.08,1.45,2.58.67,1.22.89,1.58.52.93.69,1.25.45.81.62,1.09l.68,1.16c.37.65.57,1,1.77,3.19l.57,1v8.53c0,8.41,0,8.52.33,8.52a.3.3,0,0,1,.33.34c0,.32.11.33,3.17.33h3.17V95.72c0-5.63,0-8.69.16-8.76a2.21,2.21,0,0,0,.47-.71c.17-.34.48-.92.69-1.29s.62-1.07.89-1.58l1.12-2c.34-.59.84-1.49,1.12-2s.66-1.2.85-1.54c.38-.65.78-1.35,1.39-2.42l.77-1.37L359,72c.85-1.5.87-1.63.3-1.63-.35,0-.41-.06-.32-.34s.05-.33-3.17-.29l-3.28,0-.57,1c-.31.55-.69,1.22-.83,1.5s-.44.8-.66,1.16-.53.93-.71,1.25-.48.89-.69,1.25-.58,1-.8,1.42l-1,1.81c-.65,1.17-.62,1.17-1.37-.23-1.23-2.26-1.5-2.73-2-3.59-.28-.5-.59-1-.67-1.16s-.57-1-1.08-1.88a13.47,13.47,0,0,0-1.41-2.13l-.49-.49h-3.09c-2,0-3.1.06-3.1.18m-276.89,3a5.22,5.22,0,0,1,.52,2c.08,1.16,0,1.53-.71,3.44-.24.64-.54,1.46-.66,1.83l-.57,1.58c-.18.51-.65,1.78-1,2.84s-.88,2.4-1.1,3-.51,1.38-.63,1.75-.43,1.19-.67,1.83S51.73,92.6,51.6,93s-.42,1.2-.66,1.84-.54,1.46-.67,1.83c-2.14,6.23-3,7.23-6,7.39l-1.38.07-9.3-3.37L23.39,97l-1.84-.68L18,95.06l-1.87-.68-1.84-.67-1.83-.66-1.83-.67-1.84-.67-1.83-.66-1.88-.68c-.52-.19-1.4-.53-1.95-.75l-1-.4.57.5A5.28,5.28,0,0,0,4,90.48l1.64.59L9.3,92.41l1.75.63,3.71,1.34,1.84.67,1.83.66,1.83.67,1.84.67,1.83.66,1.83.67,1.84.67,1.83.66,1.83.67,1.84.67,1.83.66,1.83.67,1.84.67,1.83.66,1.87.71a5.58,5.58,0,0,0,6.14-1.23,7.54,7.54,0,0,0,1.56-3l.68-1.87c.18-.51.48-1.33.67-1.84s.48-1.32.66-1.83.49-1.33.67-1.83.48-1.33.67-1.84.48-1.32.66-1.83.49-1.33.67-1.83.48-1.33.67-1.84.48-1.32.66-1.83.49-1.33.67-1.83.48-1.33.67-1.84.49-1.33.68-1.83a5.77,5.77,0,0,0-1-5.77c-.38-.36-.38-.36,0,.51m-24.77-.35a.61.61,0,0,0,.22.34c1.77,1.47,2.09,7.09.57,10.1-2.45,4.85-9.54,7-13.68,4.05-.67-.47-.75-.24-.08.25,3.08,2.31,7.14,2.38,11.19.18,3.29-1.79,5.27-7.36,4-11.26-.59-1.8-2.21-4.48-2.21-3.66m16.08,3.32A2.53,2.53,0,0,1,46,79.46c-1.29,0-1.4.23-.33.66a2.66,2.66,0,0,0,3.41-3.7c-.36-.78-1-1.32-.67-.58m-3,.64a.84.84,0,0,0-.12.87c.19.54.73.71.73.24a1.1,1.1,0,0,1,.81-.88c.15,0,.16-.08,0-.33a.87.87,0,0,0-1.45.1m199.15.75c1.93.41,2.54,1.26,2.44,3.44-.12,2.56-1.44,3.59-4.77,3.69l-2.21.06V77.05h1.83a18.08,18.08,0,0,1,2.71.18m-171.18.48c1.84,1.23,1.53,4.66-.55,6.1-.66.46-.77.48-3,.55l-2.31.06V77.18l2.63.06c2.45.06,2.66.09,3.23.47m222.9,0c1.15.68,1.54,2.53.91,4.22a2.48,2.48,0,0,1-.5,1c-.08,0-.19.15-.25.33s-.18.34-.27.34a2.21,2.21,0,0,0-.67.37c-.46.34-.73.38-2.83.44l-2.31,0V77.18l2.62.06c2.4.06,2.68.1,3.3.46" style="fill:#040404;fill-rule:evenodd"/><path id="path2" d="M57.55,75.3c0,.36,0,.5.08.29a1.88,1.88,0,0,0,0-.67c-.05-.16-.08,0-.08.38m-23.5,3.91c0,.33,0,.46.08.3a1.47,1.47,0,0,0,0-.59c-.05-.16-.08,0-.08.29" style="fill:#5f0404;fill-rule:evenodd"/><path id="path3" d="M24.25,59.59l-.49.54.54-.49c.51-.45.62-.59.49-.59a4,4,0,0,0-.54.54M45.72,79.5a1.42,1.42,0,0,0,.58,0c.16,0,0-.08-.29-.08s-.45,0-.29.08M31.17,85.34,30.6,86l.62-.57c.58-.53.7-.68.57-.68s-.3.29-.62.63M43.64,104a1.88,1.88,0,0,0,.67,0c.15,0,0-.08-.38-.08s-.5,0-.29.08" style="fill:#9d0404;fill-rule:evenodd"/><path id="path4" d="M24.42,59.59l-.49.54.54-.49c.51-.45.62-.59.49-.59a4,4,0,0,0-.54.54m6.66,26-.48.54.54-.49c.5-.45.62-.59.49-.59a3.73,3.73,0,0,0-.55.54m-6.94,2.74a1.88,1.88,0,0,0,.67,0c.15,0,0-.07-.38-.07s-.5,0-.29.07" style="fill:#150404;fill-rule:evenodd"/></g></g></g></svg>