<svg xmlns="http://www.w3.org/2000/svg" viewBox="0 0 361 104.82"><title>clearedAsset 1white</title><g id="Layer_2" data-name="Layer 2"><g id="svg"><g id="svgg"><path id="path0" d="M15,15.06c0,18,.09,18.62,2.87,21.52.74.77.78.79.35.2a9.57,9.57,0,0,1-1.41-2.45c-.89-2.22-.87-1.75-1-18.22L15.74.78,15.37.73,15,.67V15.06m36.17,2c0,19.42,0,19.46-1.83,23.39-3.68,8-11.23,12-22.5,12-7.28,0-11.59-1.18-16.17-4.41L9.24,47l.92.84c4,3.64,9.67,5.42,17.33,5.42,11.24,0,19-4.15,22.66-12.14C52,37.19,52,36.4,52,16.7L51.91.78,51.53.73,51.16.67V17.06M151.49,6.33V12l-7,.07c-10.06.11-12.7.73-18,4.23-8.43,5.59-10,21.13-2.78,28,.74.7.79.73.29.16-4-4.66-5.34-14.71-2.58-20a2.59,2.59,0,0,0,.27-.69c0-.9,2.79-4.46,4.57-5.84a16.34,16.34,0,0,1,4.12-2.57C134.71,13.19,136,13,145,12.9l7.29-.06,0-6,0-6-.37-.05-.38-.06V6.33M249,25.87V51.05l-.79.35c-.43.19-2.07.75-3.62,1.23-3.44,1.08-6.37,2-6.88,2.24s-.54,1-.17,1,4.36-1.25,4.6-1.4,1.47-.51,3.06-1c3.61-1.12,4.35-1.4,4.51-1.64s.15-50.69-.07-50.91c-.65-.65-.64-1.2-.64,25M360.28.8c-.07.07-.12,2.62-.12,5.67V12H346.35c-11.47,0-13.85,0-14,.23s-.17,2.3-.14,7.62l0,7.4.38,0,.37.06,0-7.22.05-7.22,14,0,14,0-.05-6c0-6.17-.09-6.6-.67-6M197.88,6.72c5.9,8,5.29,21.39-1.26,27.81a19.35,19.35,0,0,1-4.34,3.17c-1,.64-1,.63.56,4.31,1.78,4.09,3.58,8.26,5.57,12.85.89,2.07,2,4.67,2.52,5.8s.9,2.08.9,2.12-2.65.08-5.89.08c-6.15,0-6.22,0-5.9.52.19.3.5.32,6.42.32h6.22l-.11-.38c-.06-.21-.28-.75-.48-1.21-.38-.82-1.77-4-2.18-5-.12-.27-.86-2-1.66-3.83s-1.51-3.48-1.59-3.67l-1.34-3.08-1.4-3.25c-.3-.7-.81-1.85-1.23-2.8-.56-1.23-.5-1.53.43-2,5.72-3.24,8.53-7.48,9.31-14.07a27.75,27.75,0,0,0-.61-10.5,16.48,16.48,0,0,0-2-4.84,23,23,0,0,0-2.39-3.16c-.28-.25-.09.1.47.86M97.25,6.05c.07.12.43.65.78,1.17,4.14,6.11,4.4,17.76.54,24.3-2.34,4-6.09,6.57-11.16,7.76-.28.06-3.58.16-7.33.22l-6.84.11-.08,9.74-.08,9.73-.42.13-3,.95-5.38,1.71c-2.73.87-2.79.9-2.79,1.36s-.23.62,2.34-.2l9.62-3,.54-.16V50.2c0-7.66.05-9.67.22-9.81a59.13,59.13,0,0,1,7.29-.23l7.08-.06,1.79-.61c7.71-2.64,11.71-9.12,11.71-19,0-5.71-1.25-10.07-3.84-13.48-.71-.94-1.33-1.56-1-1m208.3,5.65c4.66,6.31,6.34,11.59,6.34,19.91,0,16.22-8.74,26.89-24.9,30.42a32.17,32.17,0,0,1-7.33.81c-3.27.1-3.42.12-3.42.44s.13.34,2.34.39C293,64,306.5,56.3,310.42,45.48c4.36-12,2.5-26.09-4.44-33.45-.47-.5-.66-.65-.43-.33M174,12.24c-.15.19-.19,2-.15,7.64l0,7.4.37,0,.37.06,0-7.22,0-7.22,4.15,0c5-.05,7,.36,8.65,1.77.27.23.29.23.19,0-.22-.59-2-1.66-3.74-2.21-1.28-.41-9.65-.58-10-.2m98,0c-.16.17-.2,4.71-.2,21.52,0,13.78-.06,21.3-.17,21.3s-1.1-.31-8.31-2.68a23.67,23.67,0,0,0-3.14-.92c-.31.3.56.67,4.64,2l6,2a13,13,0,0,0,1.62.47c.17,0,.21-4.37.21-21.31,0-18.5,0-21.34.24-21.52.43-.35,9.49-.12,11.26.29a25.42,25.42,0,0,1,9.18,3.88c1,.71,1.14.77.74.33-1.82-2-6.56-4.18-10.71-5-2.24-.45-11-.68-11.34-.3M73.45,12.3c-.22.22-.15,14.8.08,15,.61.61.63.42.63-6.87,0-3.89,0-7.19.1-7.33s.57-.27,3.72-.27c4.64,0,6.39.3,8.23,1.4,1.22.74,1,.29-.25-.56-1.9-1.27-2.59-1.4-7.8-1.47a45.9,45.9,0,0,0-4.71.07m162,15.43c-.14.21-.85,1.85-1.57,3.63-2.28,5.62-6.57,16.13-7.48,18.34-.33.77-.83,2-1.13,2.75-1.89,4.61-3.38,8.16-3.85,9.2l-.55,1.21-5.72,0c-5.6,0-5.72.05-5.72.38s.12.33,6.1.38l6.1,0,.71-1.63c.39-.89.81-1.85.92-2.12l.63-1.5L226,53.36c.93-2.29,1.21-3,1.34-3.25S228.4,47.52,229,46c.17-.44.46-1.15.63-1.58.39-1,1.89-4.64,2.38-5.8.19-.45.49-1.19.66-1.62.38-1,1-2.38,1.24-3,.52-1.22,1.47-3.56,1.68-4.15.35-1,.69-1.56.93-1.65s.17-.15,0-.39a.64.64,0,0,0-1.13,0m116.85.41c-.07.06-.12,2.61-.12,5.67v5.55h-9.81c-8.11,0-9.85,0-10,.23s-.17,1.8-.14,5.71l0,5.48.38,0,.37.06V45.74c0-3.78.05-5.2.2-5.34s2.6-.2,10-.2H353l-.05-6c0-6.18-.09-6.61-.67-6M151.49,47.44V62.86h-7c-3.87,0-7.72-.07-8.54-.17a40.53,40.53,0,0,1-18.14-7c-1.19-.88-1.26-.91-.53-.25l1.09,1c1.13,1.07,6.58,4,9,4.77.58.19,1.33.45,1.67.58,4.23,1.56,7.89,2,16.87,1.9l6.41-.06V32.11l-.37,0-.38-.05V47.44M174,39.56c-.16.16-.2,3-.2,11.75V62.86l-5.8,0-5.79.05-.05.37-.05.38h12.52l0-11.71,0-11.71,2.46-.08,2.47-.09-.27-.37c-.31-.44-5-.59-5.37-.18m-42.2,1.95c1.77,1.6,6.74,3.33,7.24,2.53.24-.39-.26-.63-1.52-.74A11.61,11.61,0,0,1,132,41.37c-.83-.57-.9-.52-.16.14M360.27,51.64c-.06.06-.11,2.61-.11,5.67v5.55l-19.79,0L320.58,63l-.06.37,0,.38H361V57.61c0-6.36,0-6.66-.72-6M23.34,60.45c-2.45,2.27-1.95,2.21-6,.75-3.33-1.22-3.77-1.31-4.27-1-.24.17-8.67,22.92-9,24.41-.11.42.33,1.2.67,1.2.13,0,.23-.2.24-.49a2,2,0,0,1,.2-.84c.1-.2.32-.75.49-1.22.3-.89,1.8-5,2.36-6.57.18-.48.48-1.28.66-1.79s.48-1.33.67-1.83L10,71.28c.19-.5.49-1.32.67-1.83s.48-1.33.67-1.83L12,65.78c2.11-5.8,1.52-5.4,5.74-3.82.64.23,1.47.53,1.84.65s.94.34,1.28.49c.85.36,1,.34,1.64-.28l2.11-1.91a12.81,12.81,0,0,1,1.66-1.38c.14,0,3.56,1.21,6.22,2.2l1.84.67c.5.18,1.16.44,1.46.57.51.21,1,0,.66-.37-.06-.06-11-4.09-11-4.06s-.93.87-2.07,1.91m16.4-.17a10.64,10.64,0,0,1,.76,3.38c.2,1.76.24,1.88.61,2,.54.13.53.2.19-1.94s-.5-2.64-1.18-3.28c-.41-.37-.49-.41-.38-.14m-2,8.63a4.18,4.18,0,0,0,2,1l1.92.69c1.44.54,2.79,1,3.66,1.33l1.84.67c.64.24,1.46.54,1.83.66s1.19.42,1.83.67c2.51,1,3.17,1.07,2.49.43-.3-.27-14.94-5.68-15.4-5.68-.11,0-.17.09-.13.21m53.53,1.66c-.3.78,0,13.88.35,13.88s.33-.13.37-7,0-7-.29-7a.5.5,0,0,0-.43.21m16.43,13.24V97.29l-2.71.89c-3,1-3.16,1.08-3.09,1.58s.6.41,1.6,0a9.9,9.9,0,0,1,1.12-.38c.53-.14,1.6-.5,3-1l.87-.33,0-13.77,0-13.77-.38-.06-.37,0V83.81M168.1,70.47a22.27,22.27,0,0,0-.11,3v2.89h-8.16l-.05,13.55,0,13.54-2.83.08c-2.78.08-2.84.09-2.89.46l-.05.37h6.52l0-13.62.05-13.63,4.12,0,4.13,0V73.69c0-3.41-.1-3.84-.73-3.22m59.52,2.85,0,3-4.25.09c-5.06.11-6.15.4-8.75,2.32-4.14,3.06-4.83,11-1.3,14.8l.57.62-.33-.58c-2.85-4.92-2-11.15,1.87-14.06C218,77.54,220,77,225.28,77h3.05V73.7c0-3.21,0-3.34-.33-3.34s-.34.14-.38,3m50.16,10.49,0,13.45-2.67.94C272,99.27,272,99.28,272,99.7c0,.58.22.54,3.34-.51,2.26-.76,2.88-1,3.12-1.31s.32-26.69.11-27.25a.48.48,0,0,0-.42-.27c-.3,0-.31.4-.36,13.45m36.38-6.47c0,6.94,0,7.3.57,7.09.24-.09.26-.81.22-7l0-6.94-.38-.06-.37,0v7m16.46,6.48,0,13.45-2.09.7c-3.83,1.28-3.66,1.2-3.66,1.72s.76.49,1.72,0a3.67,3.67,0,0,1,.85-.31c.53-.14,1.59-.49,3.05-1l.88-.33V84.18c0-13.69,0-13.82-.34-13.82s-.33.14-.37,13.46m10.16-13.18c.06.16,1,1.9,2.13,3.88s2.3,4.1,2.64,4.72a4.09,4.09,0,0,0,.78,1.12c.29,0,.36.16-1.46-3.18-.28-.51-.76-1.36-1.07-1.89s-.77-1.35-1-1.82c-1.16-2.09-1.79-3.11-1.94-3.11s-.1.13,0,.28m17.65.1c-.28.43-3.42,6-4.36,7.7-.35.64-1.52,2.73-2.61,4.65l-2,3.48v17l-2.71,0c-2.66,0-2.71.05-2.76.42l0,.37h6.36V95.71c0-5.64.05-8.7.16-8.76a2.42,2.42,0,0,0,.47-.72c.17-.34.48-.92.69-1.28s.62-1.08.89-1.59l1.12-2c.34-.59.84-1.49,1.12-2s.66-1.19.85-1.54L357,75.41l.77-1.38,1.14-2a8.88,8.88,0,0,0,.73-1.46c0-.34-1-.18-1.23.21M31.88,72A10.35,10.35,0,0,1,34,79.57c-.8,7-8.88,10.94-14.75,7.16-1.47-1-1.57-1-.65-.13,3.19,2.91,7.57,3.21,12,.82C35.49,84.74,36.4,76,32.14,72.11c-.49-.44-.52-.45-.26-.08m24.61-.14a5.59,5.59,0,0,0,.45.9,4.17,4.17,0,0,1,.52,2.15l.06,1.34L53,88.85c-5.13,14.13-5,13.78-7,14.69s-.92,1.25-23-6.8c-10.82-3.94-20-7.32-20.42-7.53l-.75-.36.72.66a5.19,5.19,0,0,0,1.5.94l1.66.6,3.66,1.34L11,93l3.71,1.34,1.84.67,1.83.67,1.83.66,1.84.67,1.83.67,1.83.66,1.84.67,1.83.67,1.83.66,1.84.67,1.83.67,1.83.66,1.84.67,1.83.67,1.87.7a5.58,5.58,0,0,0,6.14-1.23,7.55,7.55,0,0,0,1.56-3l.68-1.88c.18-.5.48-1.33.67-1.83L52,94.61c.19-.5.49-1.33.67-1.83s.48-1.33.67-1.83L54,89.11c.19-.5.49-1.33.67-1.83s.48-1.33.67-1.83L56,83.61c.19-.5.49-1.33.67-1.83s.48-1.33.67-1.83.49-1.33.68-1.84a6.11,6.11,0,0,0-.11-4.5c-.38-.76-1.41-2-1.41-1.72M79.12,73.2c.18.32.47.84.66,1.16C81.32,77,81.41,82.89,80,86c-1.72,3.72-4.27,5-10,5h-3.3v10.45l-2.92,1c-2.84,1-2.91,1-2.91,1.44,0,.61-.07.62,3.5-.58l3.08-1,0-5.21,0-5.21h3.12c4.28,0,5.68-.35,7.78-2,4.12-3.15,4.68-12.63,1-16.67l-.57-.63.32.59m172.37.19c1.47,2,1.92,3.72,1.91,7.14,0,4.59-1.4,7.52-4.37,9.2-1.07.61-1.08.4.14,3.31l2.29,5.49c.28.69.86,2.06,1.27,3s.76,1.83.76,1.87a24.64,24.64,0,0,1-2.89.08c-3.07,0-3.12,0-3,.51.08.31.26.32,3.4.32,3.52,0,3.5,0,3.07-.82-.13-.26-.35-.76-.48-1.12s-.55-1.37-.92-2.26c-1.52-3.61-2.07-4.91-2.35-5.63l-.83-2c-.59-1.42-.58-1.5.25-1.89.32-.15.58-.34.58-.42a.17.17,0,0,1,.18-.15,5.94,5.94,0,0,0,1.82-1.78c0-.12.06-.22.13-.22a2.64,2.64,0,0,0,.59-.88c2-4.06,1.61-10-1-13.46-.75-1-1.25-1.25-.56-.3m50.45-.28c3,4.39,2.59,12-.77,15.39-2.05,2-3.63,2.53-8.3,2.53h-3.38V101.5l-2.87,1c-2.78.94-2.88,1-2.93,1.46s0,.47.33.38a24.75,24.75,0,0,0,2.39-.7c1.89-.67,2.53-.89,3.21-1.09l.71-.21V91.9l3.62-.08c4.8-.11,5.9-.46,8-2.56,3.6-3.63,3.76-12.8.27-16.07-.6-.57-.6-.57-.27-.08M197.73,76.2c10,14-3.06,32.21-18.83,26.33-1.3-.49-1.54-.52-1.33-.18.82,1.34,7.23,2.39,10.84,1.78C200.06,102.18,206,87.9,199.27,78a12.17,12.17,0,0,0-1.63-2.09l-.69-.75.78,1.09m-55.66.72a17,17,0,0,1-5.93,24.84,16.65,16.65,0,0,1-13.06.86c-1.73-.66-1.81-.68-1.72-.41.45,1.41,7.28,2.59,11,1.91,12.66-2.28,18.07-19.06,9.12-28.26-.4-.41-.25-.11.54,1.06M48.32,75.85c1,1.92-1.14,4.11-3.39,3.44l-.49-.14.38.37a2.67,2.67,0,0,0,4.26-3.11c-.24-.52-.51-.88-.67-.88s-.23.07-.09.32m-3,.46a1,1,0,0,0-.26.88c.19.76.92,1,.92.36a1.1,1.1,0,0,1,.81-.85c.31,0,.22-.48-.13-.66a1,1,0,0,0-1.34.27m194,0a36.3,36.3,0,0,0-.12,4.1v4H240V77h1.83a8.86,8.86,0,0,1,4,.61c.63.4.59.14-.06-.4-.93-.77-5.93-1.51-6.46-.95M66.7,80.41c0,3.91,0,4,.38,4s.33-.13.37-3.65l0-3.64,2.62.06c2.46.06,2.66.09,3.19.46.35.25.53.32.48.17-.32-1-2-1.48-4.93-1.48H66.65l0,4m79-3.71c0,.32.11.33,3.83.33s3.84,0,3.84-.33-.12-.34-3.84-.34-3.83,0-3.83.34m143.91-.14c-.29.77,0,7.89.34,7.89s.33-.13.38-3.65l0-3.64,2.63.06c2.2,0,2.71.11,3.1.36.58.39.74.26.25-.19-.85-.79-1.44-.94-4.11-1-2,0-2.56,0-2.63.17m-163.08,2a8.51,8.51,0,0,0-5.09,12.13c.48.86,1.59,2.15,1.59,1.85a.37.37,0,0,0-.15-.28c-1.22-.76-2-4.72-1.37-6.94,1.62-5.66,7.3-7.84,12.44-4.75.44.26.43.23-.13-.28a8.3,8.3,0,0,0-7.29-1.73m56.09,0c-5.78,1.5-8.09,9.63-3.89,13.69l.52.5-.36-.58c-2.87-4.57-1.44-10,3.23-12.34,2.45-1.22,6.79-.61,8.38,1.17.19.22.2.21.08,0-.86-1.78-5.26-3.11-8-2.41m88,6.57c-.15.34-.67,1.67-1.16,3-1.62,4.21-3.69,9.49-5.14,13.09l-.9,2.25-2.48,0c-2.92,0-3.23.1-3.23.54s.12.33,3.21.33h3.21l.44-1c.25-.57.65-1.56.89-2.2s.55-1.39.68-1.67.53-1.33.91-2.34c.69-1.85,1-2.64,1.63-4.16.35-.85.94-2.38,1.62-4.17.21-.55.53-1.41.73-1.92.65-1.7.26-3.3-.41-1.7m-42.91,10.2v8.17h-4c-6,0-8.38-.61-12.44-3.12l-1.16-.72.83.76a8.68,8.68,0,0,0,1.25,1c4.82,2.54,6.45,2.93,12.37,2.93h3.8V95.78c0-8.47,0-8.58-.34-8.58s-.33.11-.33,8.16M91.27,91.14c-.06.06-.11,2.87-.11,6.25v6.13l-2.88,0c-2.75,0-2.87.06-2.87.38s.12.33,3.29.38l3.29,0V91.87l4.63-.05c4.5,0,4.62,0,4.62-.37s-9.64-.64-10-.31m147.89,6.14v6.24l-2.88,0c-2.84,0-2.87.05-2.93.42l0,.38,3.3,0,3.31,0L240,98,240,91.7h1.06c1,0,1.06,0,1-.34s-.23-.33-1.48-.33h-1.4v6.25m75,0v6.24l-2.88,0c-2.84,0-2.87.05-2.93.42l-.05.38,3.3,0,3.31,0,0-6.21.05-6.21h9.16V91h-10v6.25m-96.52-5c.11.2.31.37.44.37s.25.06.25.14a6,6,0,0,0,2.29,1c.47.09.54.06.54-.24s-.14-.37-.63-.45a9.71,9.71,0,0,1-2.69-.89c-.39-.25-.39-.25-.2.11m-95.47,5.2c-3.08,3.21-3,3.18-3.63,2.64-.21-.2-.42-.32-.48-.27a6.18,6.18,0,0,0,1.75,1.46c.19,0,6.18-6.13,6.18-6.33s-.65-.5-.9-.5c0,0-1.34,1.35-2.92,3m56.08,0a25,25,0,0,1-3.16,2.91,8,8,0,0,1-.81-.51,2.56,2.56,0,0,0-.62-.36,16.36,16.36,0,0,0,2.3,1.78c.17,0,6.2-6.16,6.2-6.33a2.23,2.23,0,0,0-.89-.5s-1.39,1.35-3,3" style="fill:#050404;fill-rule:evenodd"/><path id="path1" d="M24.12,54.66a15,15,0,0,0-3.72,3c-.17.16-.41.13-1.18-.13L17.58,57l-1.64-.58c-2.83-1-6.31.35-7,2.74,0,.19-.33,1-.62,1.75s-.6,1.61-.67,1.84-.38,1-.67,1.83-.59,1.6-.66,1.83S6,67.42,5.66,68.2,5,69.91,4.91,70.28s-.38,1.08-.58,1.58-.47,1.22-.59,1.59-.46,1.3-.75,2.08-.63,1.72-.75,2.08c-.31.9-.8,2.26-1.33,3.67-1.26,3.31-1.22,5,.16,6.84.69.91,1.06,1,21.84,8.62,22.12,8.05,21,7.71,23,6.8s1.89-.56,7-14.69l4.55-12.57-.06-1.34a4.87,4.87,0,0,0-3.32-4.72c-.31-.09-1.09-.37-1.73-.61s-1.47-.55-1.83-.67l-1.84-.67c-.64-.24-1.46-.54-1.83-.66l-1.83-.67a28.9,28.9,0,0,0-3.64-1.23c-.79-.17-.68.08-1-2.35-.48-3.78-.62-3.93-4.92-5.5-.48-.17-1.27-.47-1.75-.66a5.9,5.9,0,0,0-1.13-.34.74.74,0,0,1-.42-.15,5.78,5.78,0,0,0-1.15-.49c-.55-.18-1.53-.53-2.17-.77-3-1.12-3.6-1.22-4.79-.79m6.79,5.87c3,1.1,5.52,2,5.55,2s0,.19,0,.41a27.3,27.3,0,0,0,.78,5.55.74.74,0,0,0,.5.21c.47,0,15.15,5.33,15.5,5.63s.36.9-.14,2.28c-.24.64-.53,1.47-.66,1.84s-.42,1.19-.67,1.83-.53,1.47-.66,1.83-.42,1.2-.66,1.84-.55,1.46-.68,1.83-.42,1.19-.66,1.83-.54,1.47-.66,1.84-.42,1.19-.67,1.83-.55,1.47-.67,1.83L46.41,95c-.7,1.88-1.26,3.46-1.43,4-.26.87-.95,1.14-1.93.76l-1.77-.66-1.91-.71L35.78,97l-1.87-.68-1.83-.66L30.24,95l-1.83-.67-1.83-.66L24.74,93l-1.83-.67-1.83-.66L19.24,91l-1.79-.66c-1.47-.54-8.29-3-9.54-3.43l-2.07-.72c-1.51-.52-1.92-.87-1.78-1.52.23-1.15,8.77-24.26,9-24.45.5-.36.94-.27,4.27,1a33.91,33.91,0,0,0,3.56,1.16,34.35,34.35,0,0,0,4.49-3.82s2.48.89,5.5,2m-8.67,8.24c-8.31,1.7-10.49,13.29-3.33,17.77A9.7,9.7,0,0,0,34,78.36a9.55,9.55,0,0,0-11.79-9.59M45,74.55a2.57,2.57,0,0,0,.18,4.81c2.19.61,3.72-1.21,3.08-3.66A2.24,2.24,0,0,0,45,74.55M46.67,76c.35.18.43.82.16,1.32a1.19,1.19,0,0,1-1.4.45c-1-.78.11-2.38,1.24-1.77" style="fill:#fb0404;fill-rule:evenodd"/><path id="path2" d="M2.66,16.82c0,17.51,0,18.8.74,20.69a5,5,0,0,1,.26,1,35.46,35.46,0,0,0,2.06,4.31A20,20,0,0,0,9,46.62c.35.23,1.22.86,2,1.4,4.24,3.14,8.38,4.25,15.84,4.26C38,52.28,45,48.69,49,41c2-4,2-3.74,2.05-23.88l0-17H38.84l-.07,15c-.06,16.52,0,15.94-1.11,18.51-2,4.78-5,6.68-10.67,6.68-3.83,0-5.27-.41-7.35-2.1a3.61,3.61,0,0,0-.95-.63c-.56,0-2.26-2.47-2.94-4.25-.83-2.19-.84-2.47-.84-18.38V0H2.66V16.82m58.17,14.7c0,17.33.05,31.51.12,31.51a1.38,1.38,0,0,0,.48-.24,30.59,30.59,0,0,1,3.32-1.18L69.83,60l2.7-.86.63-.18v-9.6c0-7.24,0-9.65.2-9.8s1.82-.2,6.48-.2c10,0,13.45-1.18,17.25-5.91,5.14-6.39,5.56-19.21.86-26.17L96.84,5.65a17.73,17.73,0,0,0-4-3.41L91.6,1.58A21.78,21.78,0,0,0,89.33.67L87.74.12,74.28.07,60.83,0V31.52M136.66.19a35.4,35.4,0,0,0-23.82,12c-1.1,1.31-3.85,6.26-3.85,6.92a5.15,5.15,0,0,1-.32,1.05c-1.92,5-2.22,14.39-.65,20.5,2.55,10,8.88,16.33,20,20.2,4.77,1.64,6.93,1.92,15.8,2l7.46.07V47.65c0-8.39,0-15.48.1-15.77l.1-.52-12.23,0-12.22.05,0,1a14.27,14.27,0,0,0,1.62,5.41,13.41,13.41,0,0,0,2.11,2.67,4.14,4.14,0,0,1,.94.56,11.07,11.07,0,0,0,5.69,2.09c1.76.19,1.63-.16,1.52,4l-.08,3.58-.39,0c-1.5.22-8.39-1.84-10.05-3a2.22,2.22,0,0,0-.55-.31,12.81,12.81,0,0,1-1.72-1.08l-1-.75c-4.58-3.52-6.65-9-6.08-16.09.67-8.27,5.18-13.74,13.58-16.5,2.84-.93,4.54-1.08,12-1.08h6.58V6.65c0-2.95,0-5.65.1-6l.11-.62-6.65,0c-3.66,0-7.36.07-8.23.13m24.83,31.35V63.07L162,63c.29-.06,3.06-.11,6.17-.11h5.64l.05-11.7,0-11.71,2.64-.05c2.79,0,3.11,0,3.11.69a38.72,38.72,0,0,0,2.3,5.65c.18.39.83,1.87,1.44,3.29l1.34,3.08c.12.28,1,2.26,1.92,4.42,2.79,6.48,2.82,6.54,3.13,6.42.12-.05,2.89-.09,6.14-.09h5.9l-.23-.45c-.13-.26-.8-1.78-1.49-3.38s-2.28-5.28-3.54-8.17c-4.38-10.1-5.24-12.14-5.24-12.39s.3-.53,2-1.53c5.66-3.31,8.37-8.84,8.37-17.08,0-5.83-1.17-9.53-4.3-13.58-.57-.73-1.06-1.41-1.1-1.5-.41-1-3.94-3.34-6.47-4.22L188.58.11,175,.06,161.49,0V31.54M232.17,1.4c-.29.76-.67,1.7-.85,2.09a4.32,4.32,0,0,0-.33.88,4.43,4.43,0,0,1-.31.87c-.18.39-.49,1.16-.69,1.71s-.5,1.33-.67,1.75c-.57,1.45-.82,2.09-1.25,3.25-.24.64-.57,1.5-.74,1.91s-.48,1.2-.68,1.75-.5,1.34-.66,1.75c-.57,1.45-.82,2.1-1.25,3.25-.24.64-.57,1.51-.75,1.92s-.47,1.2-.67,1.75-.5,1.34-.67,1.75-.5,1.28-.74,1.92c-.66,1.78-.92,2.43-1.27,3.21a4.16,4.16,0,0,0-.32.92A3.58,3.58,0,0,1,220,33a3.58,3.58,0,0,0-.33.92.74.74,0,0,1-.15.42,18.79,18.79,0,0,0-1.19,3c-.17.46-.47,1.25-.67,1.75s-.47,1.22-.6,1.58-.3.82-.39,1-.27.64-.4,1-.4,1.08-.6,1.59-.5,1.29-.67,1.75-.46,1.22-.65,1.71l-.69,1.75c-.19.48-.48,1.25-.65,1.7s-.47,1.25-.67,1.75-.5,1.3-.67,1.75-.47,1.25-.67,1.75-.47,1.22-.6,1.59-.31.81-.4,1-.26.63-.39,1c-.22.61-.74,1.94-1,2.6-.17.4-.18.4,6.26.35l5.94,0,.37-.87c.83-1.94,3.1-7.38,4.25-10.2l2.67-6.5c.79-1.92,2.14-5.22,3-7.33L233.49,32c.47-1.15,1-2.57,1.28-3.17.49-1.22.81-1.66,1.23-1.66.67,0,.67,0,.66,14.23s0,14.21.6,13.6a57.11,57.11,0,0,1,6.07-2.1,54.9,54.9,0,0,0,5.35-1.85c.08-.08.16-11.6.18-25.6l0-25.45H232.7l-.53,1.37m27.36,24.24.05,25.64.5,0c.4,0,9.4,2.89,11.13,3.55a3.85,3.85,0,0,0,.54.18s.09-9.66.12-21.46l0-21.46,4.25,0c6.49-.08,9.56.49,13.68,2.54,2.39,1.18,5.49,3.53,5.22,4-.05.08,0,.15.05.15.28,0,1.83,2.28,2.5,3.66a22,22,0,0,1,.78,16.29c-.23.62-.51,1.36-.62,1.64a6.08,6.08,0,0,1-.49,1,2.25,2.25,0,0,0-.29.54c0,.61-2.94,3.82-4.33,4.73a11,11,0,0,0-1,.7c-.07.09-1.59.93-2.62,1.46-2.88,1.47-5.64,2.06-10,2.15l-3.54.08,0,6,.05,6,2.66,0c16.62-.31,28.79-8.43,32.4-21.61C314,29,310.42,15.17,302.07,8.14,298,4.68,292.1,2,285.33.6L283.24.15,271.37.08,259.49,0l0,25.64M319.76.29c-.15.38-.12,62.29,0,62.49s7,.15,20.24.12l20.13,0V57.38c0-3,0-5.71.1-6l.11-.52H346.42c-7.67,0-14,0-14.1-.09a84.07,84.07,0,0,1,0-11.22c.15-.15,2.58-.2,9.92-.2,7.63,0,9.74,0,9.8-.2s.09-2.82.12-6l0-5.8H332.37c-.22,0-.33-14.51-.11-15.08.09-.23,1.48-.26,14-.26h13.9V6.55c0-3,0-5.71.1-6l.11-.52H340.11c-18.31,0-20.26,0-20.35.26m-237.22,12c2.24.4,4.34,1.64,5.06,3A10.12,10.12,0,0,1,88.76,18a7.6,7.6,0,0,1-5.43,9.06,65.67,65.67,0,0,1-10,.2c-.28-.17-.27-14.78,0-15.06s7.48-.26,9.18,0m101,0a7.63,7.63,0,0,1,2,14.16c-1.36.76-10.59,1.45-11.55.86-.19-.13-.26-14.95-.06-15.15a65.89,65.89,0,0,1,9.64.13M60.16,86.7c0,9.35.06,17,.13,17a1.45,1.45,0,0,0,.46-.23,26.93,26.93,0,0,1,3-1.12l2.71-.89,0-5.26,0-5.25,3.83-.09c4.88-.12,5.94-.47,8-2.68,2.78-3,3.39-9.65,1.25-13.76-1-1.94-1.81-2.9-2.84-3.42a4.33,4.33,0,0,1-.69-.43c-.92-.75-2.24-.87-9.27-.87H60.16v17m24.5-.1c0,9.3,0,16.93.12,17s1.53,0,3.25,0l3.12-.06,0-6.28,0-6.27h10l0,4.21c0,4.42,0,4.76.75,4a18.69,18.69,0,0,1,2.49-.93c1.28-.43,2.54-.85,2.79-1l.46-.17V69.7h-6.5V84.36H96.78c-2.4,0-4.66,0-5,.11l-.64.11,0-7.44,0-7.44H84.66V86.6M125.33,70c-3.16.64-8.31,3.56-9,5.1a2,2,0,0,1-.35.42c-6.25,6.09-5.09,19.06,2.19,24.32,1,.74.75.9,4-2.47,2.88-2.95,3.18-3.32,2.7-3.32a.79.79,0,0,1-.46-.22,7.18,7.18,0,0,0-1-.67c-3.49-2-4.18-8-1.36-11.65a8,8,0,0,1,14.33,3.29c1.18,5.45-3.23,10.68-8.55,10.13l-.89-.09L123.87,98c-1.72,1.76-3.15,3.28-3.19,3.36-.1.26.34.64.74.64a4.2,4.2,0,0,1,1.16.33c13.57,5.82,27.42-9.57,20.75-23.08-1.54-3.11-5-7.08-6.18-7.08a.15.15,0,0,1-.16-.14,13.06,13.06,0,0,0-2.88-1.44,18.79,18.79,0,0,0-8.78-.64M145,73v3.29h8.35v27.46l.52-.1a31,31,0,0,1,3.17-.11h2.65l0-13.62,0-13.63,4,0,4,0,.06-2.79a29.5,29.5,0,0,1,.2-3.24l.13-.46H145V73m36.34-3a17.1,17.1,0,0,0-11.48,24.41,11.84,11.84,0,0,0,.9,1.6,1,1,0,0,1,.24.38,1.15,1.15,0,0,0,.24.4l.85,1a7.68,7.68,0,0,0,.89,1,14.08,14.08,0,0,0,2.27,1.55c.16,0,6.08-6,6.08-6.18s-.2-.18-.45-.3a6.75,6.75,0,0,1-3.68-3.67L176.58,89V84.45l.63-1.31c3.5-7.16,13.29-6.23,15.31,1.46a8.6,8.6,0,0,1-1.25,6.87c-2.26,2.67-4.46,3.71-7.25,3.44l-.89-.09L180,98c-3,3.08-3.39,3.56-2.81,3.83.38.18,2.79,1,4,1.28a20.05,20.05,0,0,0,7.48-.08,17,17,0,0,0,11.2-23c-.87-2.08-4-6.48-4.66-6.48-.1,0-.19-.06-.19-.14,0-.25-1.51-1.22-3.08-2A12.51,12.51,0,0,0,188,70a17.8,17.8,0,0,0-6.63,0m37.41,0q-8.07,1.5-11.87,7.47C204.59,81,204,88,205.54,92.86a12.27,12.27,0,0,0,1.87,3.84.62.62,0,0,1,.25.36c0,.67,3.17,3.14,5.58,4.35,3.29,1.64,5.69,2.12,10.69,2.12h3.56V95.66c0-4.34,0-8.16.11-8.5l.1-.63H215v.75a5.91,5.91,0,0,0,5.14,5.64c1,.17,1.11.24,1.1.57s0,1.06,0,1.9l0,1.52-1-.1c-1.67-.16-5.79-1.88-5.79-2.42,0-.06-.22-.21-.49-.33-2.83-1.25-3.77-8.67-1.62-12.78,1.84-3.5,5-4.94,11.23-5l4-.07V73.55c0-1.43,0-2.88.11-3.23l.1-.62h-3.81a33.63,33.63,0,0,0-5.15.27m13.92,16.74v17l.52-.11c.29,0,1.71-.1,3.16-.1H239l0-6.29.05-6.29,1.45,0,1.45-.05.11.46A12,12,0,0,0,243,94c.37.87.86,2,1.08,2.58s.52,1.23.64,1.5.41,1,.63,1.5.69,1.68,1,2.5l.64,1.5,3.1,0c1.7,0,3.12-.09,3.16-.13a9.71,9.71,0,0,0-.61-1.69c-.65-1.55-1.45-3.47-3.69-8.87a16.22,16.22,0,0,1-.92-2.53,10.87,10.87,0,0,1,1.25-.9c6.41-4.26,4.94-17.39-2.17-19.48-.76-.22-2-.26-7.71-.26h-6.8v17M269,70.32c-.09.35-.37,1.15-.62,1.79l-.75,2-.74,2c-.24.64-.48,1.32-.53,1.5a7.69,7.69,0,0,1-.31.84c-.28.65-.89,2.34-1.11,3.08a3.13,3.13,0,0,1-.3.75,3.51,3.51,0,0,0-.31.75c-.16.55-1,2.75-1.43,4s-1.12,3-1.34,3.58c-.12.37-.43,1.2-.67,1.84s-.51,1.35-.58,1.58-.34.94-.59,1.58-.55,1.47-.67,1.84c-.22.64-.39,1.1-1.56,4.24-.78,2.11-1,1.94,2.52,1.87s3,.44,4.86-4.17c1.65-4.19,4.11-10.46,4.71-12,.93-2.42,1.17-2.91,1.47-2.91s.3.4.27,7.46c0,8,0,8,.74,7.31a26.32,26.32,0,0,1,2.75-1c1.42-.49,2.63-.93,2.7-1s.14-6.27.16-13.81l.05-13.7H269.2l-.18.62M283,86.7c0,17.61,0,17.34.66,16.77a23,23,0,0,1,3-1.12l2.71-.9V96.36c0-3.74.05-5.15.2-5.3s1.18-.2,3.63-.2c4.32,0,5.29-.25,7.39-1.88,3.34-2.61,4.38-10.15,2-14.59s-3.35-4.69-12.87-4.69H283v17m24.67,0v17l.52-.11c.29,0,1.71-.1,3.16-.1H314l0-6.29.05-6.29,5,0c4,0,5,0,5.05.17s0,2,0,4.25c0,3.92,0,4,.31,4s.35-.06.38-.14a19.44,19.44,0,0,1,2.73-1c1.46-.48,2.72-.92,2.78-1s.14-6.27.17-13.81l.05-13.7h-6.42V77c0,5.66-.05,7.27-.21,7.33s-2.41.09-5.09.12l-4.88,0,0-7.38.05-7.37h-6.42v17M334,69.87A9.3,9.3,0,0,0,335.07,72c.22.36.46.77.52.91s.55,1,1.07,1.92l1.45,2.58c.27.51.67,1.22.89,1.59s.52.92.69,1.25.45.8.62,1.08l.68,1.17c.37.64.57,1,1.77,3.18l.57,1v17.1l.52-.11c.28,0,1.63-.1,3-.1h2.48V86.71l1.94-3.46c1.06-1.91,2.7-4.82,3.63-6.47s2.06-3.66,2.5-4.47a13.07,13.07,0,0,1,1.2-1.9c.64-.7.53-.72-2.88-.68l-3.26,0-.57,1c-.31.55-.69,1.22-.83,1.5s-.44.8-.66,1.17-.53.92-.71,1.25-.47.86-.67,1.21-.5.86-.66,1.16c-2.3,4.13-1.93,3.9-3.05,1.92-2.58-4.57-4.6-8.27-4.74-8.71l-.17-.5-3.2,0c-2.18,0-3.21,0-3.21.14M72.49,76.69c.93.47,1.5,1,1.5,1.34a.8.8,0,0,0,.21.47c.45.46.27,3.36-.26,4.14-1,1.41-1.43,1.59-4.5,1.73-1.48.06-2.75.08-2.82,0a33.11,33.11,0,0,1-.13-4,34.7,34.7,0,0,1,.13-4.09c.31-.32,5.1,0,5.87.4m171.67-.31c3.33.71,3.91,5.63.89,7.5a19.84,19.84,0,0,1-5.93.53,70.56,70.56,0,0,1,0-8.1,22.88,22.88,0,0,1,5.06.07m51.2.31a3.66,3.66,0,0,1,2.08,3.42c.08.85-.47,2.75-.78,2.75-.08,0-.19.15-.25.34s-.18.33-.28.33a1.62,1.62,0,0,0-.58.33c-.49.38-1.12.47-3.93.56l-2.13.06v-4a35.84,35.84,0,0,1,.13-4.16c.32-.33,4.93,0,5.74.4" style="fill:#fbfbfb;fill-rule:evenodd"/><path id="path3" d="M14.9,14.86c0,7.66,0,10.79,0,7S15,11.73,15,7.9s0-.69,0,7M51.07,17c0,8.85,0,12.46,0,8s0-11.66,0-16.08,0-.81,0,8m197.76,9c-.05,13.82,0,25.06,0,25s.1-11.37.08-25.11l0-25-.08,25.11M73.34,12.26c-.13.16-.17,2.3-.14,7.62l0,7.4,0-7.43c0-5.5.09-7.47.24-7.62s.15-.2.1-.2a.67.67,0,0,0-.29.23M124,18.15l-.57.63.62-.57c.59-.54.71-.68.58-.68a5.75,5.75,0,0,0-.63.62m-22.77,1.71c0,.6,0,.84.07.54a4.87,4.87,0,0,0,0-1.08c0-.3-.07-.05-.07.54M311.88,31.61c0,.74,0,1,.07.62a9.83,9.83,0,0,0,0-1.33c0-.34-.07,0-.07.71m-192.83.09c0,.59,0,.84.06.54a4.87,4.87,0,0,0,0-1.08c0-.3-.06-.06-.06.54m48.84,41.75c0,1.55,0,2.22.06,1.46s0-2,0-2.83-.06-.19-.06,1.37m-101.32,3c0,.12-.06,2,0,4.12l0,3.92,0-4,0-4,2.21-.05,2.21,0-2.22,0c-1.66,0-2.23,0-2.29.18m224.14-.09c.62,0,1.59,0,2.16,0s.06-.06-1.13-.06-1.66,0-1,.06m-51.68,4a34.49,34.49,0,0,0,.09,4.11,13.53,13.53,0,0,0,.08-2.61q-.12-7.56-.17-1.5M73.51,77.47c.22.28.43.49.47.45s-.14-.27-.4-.52L73.1,77l.41.52m179.85,2.06c0,.32,0,.45.08.29a1.42,1.42,0,0,0,0-.58c0-.16-.08,0-.08.29m0,1.67c0,.41,0,.58.07.37a2.36,2.36,0,0,0,0-.75c0-.21-.07,0-.07.38M145.05,86.7c0,.77,0,1.09.06.71a8.42,8.42,0,0,0,0-1.42c0-.39-.06-.07-.06.71m-66.9,1.79-.57.62.62-.57c.58-.54.7-.68.57-.68a7,7,0,0,0-.62.63m160.92,2.58c0,.12-.06,3,0,6.29l.05,6.09.08-6.29c0-3.47.06-6.3,0-6.3a.48.48,0,0,0-.12.21m50.33,5.29c0,2.89,0,4.07.05,2.63s0-3.81,0-5.25-.05-.27-.05,2.62m-165.08-1.2-.58.62.63-.58c.58-.53.7-.67.57-.67a4.87,4.87,0,0,0-.62.63m55.42.75-.83.87.87-.83c.48-.45.88-.85.88-.87s-.16,0-.92.83m-39.59,2.75-.57.62.62-.58c.58-.53.7-.67.57-.67a7,7,0,0,0-.62.63" style="fill:#9d9d9d;fill-rule:evenodd"/><path id="path4" d="M151.4,6.45c0,3.11,0,4.36,0,2.78s0-4.14,0-5.67,0-.23,0,2.89m-76,5.7c1,0,2.63,0,3.66,0s.24-.05-1.78-.05-2.86,0-1.88.05m218.8,5.46.46.57s.08,0,.12,0-.16-.3-.46-.57l-.54-.49.42.5m-193,.59c0,.41,0,.58.08.37a2.36,2.36,0,0,0,0-.75c0-.21-.08,0-.08.38m0,3.33c0,.41,0,.58.08.37a2.36,2.36,0,0,0,0-.75c0-.2-.08,0-.08.38m210.67,8.25c0,.37,0,.5.07.29a1.88,1.88,0,0,0,0-.67c0-.16-.07,0-.07.38M151.41,47.53c0,8.48,0,11.95,0,7.71s0-11.18,0-15.42,0-.77,0,7.71M311.86,33.36c0,.32,0,.45.08.3a1.47,1.47,0,0,0,0-.59c0-.16-.08,0-.08.29M17.49,36.42A5.91,5.91,0,0,0,18,37l.55.49-.49-.54c-.46-.51-.6-.62-.6-.49m59,3.07c1.67,0,4.41,0,6.08,0s.31-.05-3-.05-4.71,0-3,.05m46.71,4.43a4.71,4.71,0,0,0,.54.54l.54.49-.49-.54c-.45-.51-.59-.62-.59-.49M25.37,52.49c.8,0,2.11,0,2.91,0s.15-.06-1.45-.06-2.27,0-1.46.06m278.53.75-.82.87.87-.82a12.42,12.42,0,0,0,.88-.88c0-.12-.16,0-.93.83M116,54.24a4.56,4.56,0,0,0,.71.63c.39.31.6.43.47.27s-1.18-1-1.18-.9M227.53,73.32l0,2.87-3.29,0-3.29.05,3.3,0c2.56,0,3.31,0,3.37-.18a28.85,28.85,0,0,0,0-3l-.05-2.74,0,2.87M277.66,83.9c-.05,7.39,0,13.39,0,13.32s.11-6.12.08-13.45l0-13.32-.08,13.45M314,77.39c0,3.83,0,7,.09,7s.11-5.09,0-11.47c0-1.38-.06.62-.08,4.44m16.46,6.51c0,7.39,0,13.39,0,13.32s.11-6.12.09-13.45l0-13.32-.09,13.45M147.62,76.32c1,0,2.72,0,3.75,0s.18,0-1.88,0-2.9,0-1.87,0m12.12.09c-.05.11-.06,6.24,0,13.62l0,13.42,0-13.54.05-13.54,4.12-.05,4.13,0-4.14,0c-3.17,0-4.14,0-4.2.18m144.14,4c0,.82,0,1.18.07.79a12.5,12.5,0,0,0,0-1.5c0-.43-.07-.12-.07.71M201.22,86.7c0,.87,0,1.22.06.79a10.42,10.42,0,0,0,0-1.58c0-.44-.06-.08-.06.79M349.4,95.11c0,4.68,0,6.61.05,4.31s0-6.14,0-8.5-.05-.48-.05,4.19m-121.83.34c0,4.49,0,6.3.05,4s0-6,0-8.17-.05-.36-.05,4.14M68.63,91c.94,0,2.44,0,3.33,0s.12-.06-1.72-.06-2.56,0-1.61.06m25.25,0c1.35,0,3.53,0,4.83,0s.19,0-2.47,0-3.72,0-2.36,0M240,91a7.49,7.49,0,0,0,1.34,0c.34,0,0-.06-.71-.06s-1,0-.63.06m51.43,0c1,0,2.56,0,3.5,0s.12-.06-1.8-.06-2.69,0-1.7.06m25.33,0c1.36,0,3.53,0,4.83,0s.19,0-2.46,0-3.73,0-2.37,0m-2.64,6.29c0,3.48,0,4.93.05,3.22s0-4.56,0-6.33-.05-.37-.05,3.11m-247.5-.92c0,2.89,0,4.07.05,2.63s0-3.81,0-5.25-.05-.27-.05,2.62m154.29-3.23a.6.6,0,0,1,.36.37c.06.2.08.19.05,0a.41.41,0,0,0-.36-.37c-.24,0-.26,0,0,0M120.57,99.07l-1.49,1.54,1.54-1.49c1.43-1.39,1.61-1.59,1.49-1.59s-.72.69-1.54,1.54" style="fill:#747474;fill-rule:evenodd"/></g></g></g></svg>