<svg xmlns="http://www.w3.org/2000/svg" viewBox="0 0 2203.71 1555.22"><title>clearedAsset 2full-color</title><g id="Layer_2" data-name="Layer 2"><g id="Layer_1-2" data-name="Layer 1"><path d="M1036,.5C825.3,9.4,631.6,54.1,444.2,136.9c-18.4,8.1-23.7,11.4-30.3,18.8A54.11,54.11,0,0,0,400,192.4c0,27,16,196.5,20,211.4l1,3.5,42.5-4,42.5-4v-3c0-2.7-2.8-32.1-11.5-123.2-2.8-28.2-2.6-33.8,1.4-44.4,4.6-12,14.1-22.9,24.9-28.7,13.5-7.2,68.5-25.8,120.7-40.9a1728,1728,0,0,1,413-66.4c32.7-1.3,110.4-.7,138.5,1.1,81.3,5,150.4,14.1,218,28.7l21.5,4.7,63.5-.3c146.3-.6,237.3,8.3,311.7,30.5,3.6,1-14.7-8.1-31.4-15.7C1684.1,99.5,1564.9,61.1,1453,37.4A1720.86,1720.86,0,0,0,1164.5.8C1145.2-.1,1053.8-.3,1036,.5Z" style="fill:#fa5252"/><path d="M1048,129.9c-140.5,4.8-271.9,25.6-399.5,63.3-44.5,13.1-83.2,26.8-91.3,32.2-12.6,8.3-22,22.7-24.4,37.2-1.1,6.8-.8,12.2,4,63.5,2.9,30.9,5.5,57.2,5.8,58.5.4,2.2.7,2.1,7.7-2.6,20.4-13.7,58.2-35.3,93.1-53.3,208.8-107,468.4-172,709.9-177.6,15.2-.3,27.6-.8,27.4-.9-.6-.6-31.4-5.3-51.2-7.8C1241.2,131.2,1140.2,126.7,1048,129.9Z"/><path d="M1445,181.4c-149.5,3.8-282,30.6-375.9,76-9.5,4.6-19.8,9.9-23,11.7-5.8,3.5-16.8,9.3-50.1,26.5-52.8,27.2-159.5,82.5-167,86.6-31.2,17.1-65.1,30.6-76.7,30.6-1.9,0-24.9,2.9-51.1,6.5-42.6,5.8-132.4,15.6-253.7,27.5C343.7,457,269.3,471.2,199.8,494.2c-96.9,32-164.9,79-191.8,132.6-3.3,6.6-8,19.3-8,21.6,0,.8,5.5-4.2,12.2-10.9,35.3-35.3,86.5-62.2,162.8-85.3,80.1-24.3,185.3-41.8,292-48.4,9.1-.6,25.5-1.9,36.5-3,57.4-5.7,163.5-11.1,335-17.1,18.2-.6,40-.8,48.5-.5,47.1,2,197.8-5.1,339-15.9,17.9-1.4,41.5-3.2,52.5-4,141.7-10.8,281.9-46.3,381-96.5,18.4-9.3,31.1-16.7,27-15.6-21,5.3-129.8,23.1-249,40.6-26.4,3.8-60.1,8.8-75,11-41.4,6.1-66.2,8.4-124,11.5-52.6,2.7-139.2,5.5-171,5.4h-18l10.3-3.9c14.1-5.4,21.7-9.6,25.9-14.4,8.5-9.8,12.4-24.8,10.4-40-1.3-9.5-3.5-14.2-8.2-17.4-4.9-3.4-15.7-2.7-24.9,1.5-3.6,1.6-26.3,15.7-50.5,31.3-48,30.9-55.3,34.8-76.3,40.2a101.66,101.66,0,0,1-24.2,3.4l-12.5.5L913,412c53.8-35.4,128.5-74.6,196.5-102.9,72.5-30.3,153.6-55.6,215.5-67.3,9.1-1.7,20.1-4,24.5-5,22.7-5.3,65.9-7.7,157.5-8.6,100.7-1.1,191.9,1.2,242,6.2,82.5,8,206.7,27,318.2,48.5,36.5,7,36.5,6.9,2.3-3.6-182.7-55.8-353.4-89.2-482.5-94.5-13.5-.5-33.3-1.4-44-1.9C1521.1,181.8,1464,180.9,1445,181.4Z" style="fill:#fa5252"/><path d="M2092.5,319.8c-118.1,6.7-270.7,41-450,101.4-38.5,12.9-69.2,22-103,30.5a1634.23,1634.23,0,0,1-340,48.1c-17,.6-31,1.2-31.2,1.3-.7.8,52.5,5.5,85.7,7.7,27.1,1.8,107.3,2.4,137.5,1.1,96-4.2,177.9-15.7,261.5-36.7,30.7-7.6,49.3-13.3,85.3-26,91.3-32.2,118.3-40.3,214.2-64.3,66.6-16.6,195.4-45.6,245.3-55.2,3.4-.6,6.1-1.3,5.9-1.6-.8-.8-17.7-3.4-31.6-4.8C2154.1,319.4,2113.7,318.7,2092.5,319.8Z"/><path d="M227.8,576.3l-30.5,25.5-.7,19.3c-.3,10.5-.6,67.1-.7,125.6L195.8,853l30.5,25.9,30.5,25.8,69.4.2,69.3.1,30.7-25.3,30.7-25.4.1-34.8V784.8H377l-.2,26.2-.3,26.3-50-.4c-27.5-.2-50-.4-50-.5s.1-49,.3-108.9l.4-108.7,50.1.2,50.2.3-.4,26.2-.4,26.3h28.5c15.7,0,34,.3,40.6.7l12.2.6V603.3l-30.1-25.5-30.1-25.5-14.6-.6c-8.1-.4-39.5-.7-69.8-.8l-55-.1Z"/><path d="M535,577.3c-16.8,14.2-30.8,26.2-31.2,26.9s-.8,57.1-.9,125.6l-.4,124.4,30.2,25.7,30.2,25.6,32.3.6c17.8.4,49.1.7,69.6.7h37.3l30.8-25.6,30.8-25.6.6-84c.4-46.3.7-102.7.7-125.4V604.9l-30.7-26.1-30.6-26H651.6c-28.7,0-59.7-.3-69.1-.6l-17-.5Zm134.2,43.5H684V727.5c0,58.8-.3,107.8-.6,109.1l-.6,2.2-49.7-.2-49.6-.3.4-108.5c.2-59.7.6-108.9.9-109.4s14.6-.6,35-.3C638.8,620.5,661,620.8,669.2,620.8Z"/><path d="M810.6,585c-.3,17.2-.8,96.6-1.1,176.4l-.6,145.1,10.7.6c5.9.4,24.1.7,40.6.7H890l.1-65.8c0-36.1.4-67.6.7-69.9.6-3.7,2.9,3.8,19.7,65.8l19,69.9,35-.2,35-.3,19.6-69.3c10.8-38.1,19.8-69.4,20-69.7s.3,31.3.1,70l-.4,70.5h80.9l.6-108.2c.4-59.5.7-139.1.7-177V554.8h-87.5l-33.9,85.5c-18.7,47-34.2,85.2-34.5,85s-15.4-38.8-33.6-85.9l-33-85.6H811.2Z"/><path d="M1166.6,604.9c-.3,27.7-.8,107.4-1.1,177l-.5,126.6,67.7.6c37.2.4,85.6.7,107.5.7H1380v-68l-66.7-.2-66.8-.3-.3-7.5c-.2-4.1-.1-21.2.3-37.8l.7-30.4,52.8.7,52.7.8.6-6.3c.4-3.5.7-18.8.7-34.1V698.8H1247l.2-37.8.3-37.7,66.8.4,66.7.4V555.8h-54.3c-29.9,0-78-.3-106.9-.7l-52.6-.6Z"/><path d="M1456.8,582.6,1426,608.3v69.6c0,38.3-.3,94.5-.6,125l-.6,55.4,31.1,26.2,31.2,26.3h138.1l23.2-19.3c12.7-10.6,26.6-22.1,30.8-25.6l7.7-6.3.3-79.2c.2-43.5.3-79.2.3-79.3s-28.7-.4-63.7-.8l-63.8-.8v68.3h47.3l-.6,23.2c-.4,12.8-.7,29.7-.7,37.5v14.3H1505.7l.6-63.2c.4-34.7.7-83.8.7-109V624.8h100v53h81V609.3L1657,583l-31-26.2h-69.2l-69.3.1Z" style="fill:#fa5252"/><path d="M1764.3,583.6l-30.8,25.8-.8,124.9-.8,125,5.7,5c3.1,2.7,16.9,14.5,30.7,26.1l24.9,21.1,69.2.5,69.1.5,4.5-3.7c2.5-2,16.5-13.7,31.3-25.9l26.7-22.2V792.9c0-37.3.3-93.4.7-124.7l.6-57L1983,600.8c-6.7-5.8-20.5-17.5-30.5-26.1l-18.3-15.6-36.8-.6c-20.3-.4-51.6-.7-69.6-.7h-32.7Zm149.7,102c0,32.9-.3,82.3-.7,109.7l-.6,49.8-49.6-.8c-27.3-.4-49.8-.9-50-1.1s0-49.1.4-108.8l.8-108.6H1914Z" style="fill:#fa5252"/><path d="M955.3,936.3l-5.2,8.5h4c3.7,0,4.7-.7,12.7-8.5l8.7-8.4h-15Z"/><path d="M567.1,963.3c-4,19-7.5,35.5-7.8,36.5-.5,1.9,0,2,8.3,2h8.9l7.4-35.3c4.1-19.3,7.6-35.8,7.9-36.5.3-.9-1.8-1.2-8.5-1.2h-8.9Z"/><path d="M1511.5,930c-.2.7-1.6,6.9-3,13.8-3.5,16.6-3.3,15.9-5.3,13.3-3.4-4.3-8.3-6.3-15.2-6.3-10.9.1-18.4,5.1-23.2,15.5-3.3,7.1-3.3,21.1-.1,27.2,3.7,6.9,7.4,8.8,16.9,8.8,7.7,0,8.5-.2,12.9-3.4l4.7-3.4-.7,3.2-.7,3.1h15.8L1521,967c4-19.1,7.5-35.5,7.8-36.5.4-1.5-.5-1.7-8.2-1.7C1514.6,928.8,1511.8,929.2,1511.5,930Zm-13.2,35.8c7.6,6,1.2,24-8.6,24-4.9,0-6.5-.8-8.2-4.1C1475.4,974.1,1488.8,958.3,1498.3,965.8Z"/><path d="M1194.7,931.5a40.84,40.84,0,0,0-1.1,4.8c-.4,2.2-.9,4.8-1.2,5.8-.5,1.6.2,1.8,8.2,1.5l8.8-.3.8-4c.4-2.2,1-5,1.3-6.3.5-2.1.3-2.2-7.9-2.2C1198.9,930.8,1194.9,931.1,1194.7,931.5Z"/><path d="M279.4,934.2c-7.1,1.7-13.3,5.6-18.7,11.6-6.6,7.4-9.1,14.3-9.1,26-.1,8.5.2,10.1,2.7,15.2,3.3,6.8,8.2,11.1,15.7,13.9,4.8,1.8,7.2,2,18.3,1.7,9.5-.3,13.1-.7,14.1-1.8,1.7-1.9,3.1-15,1.6-15a9.49,9.49,0,0,0-3,1c-3.9,2.1-11.9,3-17.1,1.9-9-1.9-13.9-8.2-13.9-17.7,0-10.2,4.5-17.8,13-22a30.16,30.16,0,0,1,24.1-.5l4.6,2,2.1-6.5c1.2-3.7,1.8-7,1.4-7.4-1.6-1.6-14.9-3.8-22.7-3.7A67.25,67.25,0,0,0,279.4,934.2Z"/><path d="M1665.5,934.2c-12,2.9-22.6,11.9-26.5,22.4-1.6,4-2.2,8.1-2.2,13.7-.1,9.9,1.3,15.2,5.5,20.7,6.6,8.6,14.6,11.8,29.7,11.8,12.7,0,20.9-1.6,22.1-4.4.5-1.2,2.3-8.6,3.9-16.6s3.3-15.5,3.7-16.8l.5-2.3-14.3.3-14.3.3-1.2,5.7-1.1,5.8h11l-.7,3.2c-.4,1.8-1,4.8-1.3,6.6-.8,4.3-3.3,5.6-10.2,4.9-6.6-.7-9.9-2.9-12.8-8.7-4.5-8.7-2.3-21.1,4.9-27.6,5.2-4.7,9.5-6.4,17.7-7.1a39.12,39.12,0,0,1,18.7,3.3c1.3.5,4.8-11,4.1-13.1C1701.4,933.2,1675.8,931.7,1665.5,934.2Z"/><path d="M839.5,936c-.2.7-3.5,15.8-7.3,33.5l-6.9,32.3h8.3c7,0,8.3-.3,8.8-1.8,1-3.1,9.4-43.5,10.2-48.7.7-4.9.8-4.9,1.5-1.8.3,1.8,1,12.9,1.3,24.5s1,22.8,1.3,24.5l.5,3.3h16.3l12.4-26.5c6.8-14.6,12.6-26.3,12.8-26.1s0,2.1-.6,4.2c-.9,3.6-10.1,47.1-10.1,48,0,.2,3.8.4,8.5.4s8.5-.3,8.5-.8,3.2-15.2,7-33,7-32.5,7-32.8-6.6-.3-14.7-.2l-14.7.3-8.3,18c-4.5,9.9-9.1,19.8-10,22l-1.8,4-.6-17.5c-.4-9.6-.7-19.6-.8-22.3l-.1-4.7H854C843.6,934.8,839.8,935.1,839.5,936Z"/><path d="M621.3,950.8c-9.5,2-15.6,7-19.8,16.3-2.4,5.1-2.7,6.8-2.4,14.2s.8,8.8,3.4,12.6a23.2,23.2,0,0,0,8,6.8c4.3,2.2,6.3,2.5,14,2.4a68.17,68.17,0,0,0,13.2-1.2c4.4-1.2,4.3-1,5.9-10.2l.6-3.7-5.4,1.9c-6.1,2.1-15.2,2.4-18.8.6-2.6-1.3-6.3-7.4-5.4-8.9.3-.4,8.3-.8,17.9-.8,19.7,0,18.5.6,18.5-9.1,0-9.1-3.6-16.1-10.1-19.5C637.5,950.5,626.6,949.7,621.3,950.8ZM635,963.4c.7.7,1.3,2.8,1.3,4.6l.2,3.3-9.7.3c-11,.3-11.4-.1-7.5-5.9C623.1,960.1,631.3,958.9,635,963.4Z"/><path d="M753,950.4c-10.4,2-16.6,6.3-20.9,14.4-3.8,7.2-5,15.9-3.2,22.8,1.6,5.7,7.1,11.7,12.9,13.9,5.5,2.1,17,2.3,24.8.4l5.2-1.2.7-5.6a21,21,0,0,0,.2-6c-.3-.2-2.9.3-5.8,1.1-10.4,3.1-19.2,1.5-21.7-3.9-2.6-5.6-2.7-5.5,16.7-5.5h17.8l.7-4.9c1.4-10.3-2.1-19-9-22.8C767.3,950.8,758,949.5,753,950.4Zm10.8,12.7a7.22,7.22,0,0,1,2.2,5.4v3.3H756c-5.5,0-10-.2-10-.5,0-1.4,3-6.2,5.2-8.2C755.1,959.5,759.7,959.5,763.8,963.1Z"/><path d="M948,951.1a39.27,39.27,0,0,0-9.2,3.5c-7.7,4.8-12.8,15-12.8,25.5.1,10.2,4.7,17.5,13.5,21.3,4.9,2.1,20,2.3,26,.2,3.8-1.2,4-1.6,4.8-6.6.5-3,.7-5.6.4-5.8s-2.9.2-5.8,1c-10.4,3.1-19.9,1.4-21.9-4s-2.5-5.4,17-5.4h18l.1-4.3c.5-13.4-2.1-20.1-9.1-23.7C963.9,950.2,955,949.5,948,951.1Zm14,12.5a9.93,9.93,0,0,1,2,5.3v2.9H953.9c-9.9,0-10,0-9.4-2.3,1-3.1,6.4-8.5,8.9-8.9C957.2,960,960,961,962,963.6Z"/><path d="M1066,950.4c-6.9,1.4-8.9,2.5-9.4,5.5-.3,1.6-.9,4.2-1.2,5.9l-.6,3,3.9-1.7c2.3-1,6.8-1.7,11.1-1.7,6.6-.1,7.6.1,9.3,2.3a8.75,8.75,0,0,1,1.9,4.1c0,1.5-1.4,1.8-11,2.2-9.3.5-11.8,1-16.6,3.3-9.1,4.4-12.3,12.4-8.5,21,1.6,3.6,2.9,5,6.3,6.5,7.7,3.5,17.8,2.1,23.7-3.3l2.4-2.2-.5,3.2-.5,3.3h14.3l3.3-17c2.2-10.9,3.2-18.5,2.8-21.1-1.1-8-8.7-12.9-20.6-13.4A76.17,76.17,0,0,0,1066,950.4Zm11.9,31.6c-1.3,4.8-7.1,9.8-11.3,9.8-8.6,0-8.8-9.7-.3-12.2a49.88,49.88,0,0,1,7.4-.7l5.2-.1Z"/><path d="M1384.3,950.8c-14,2.8-22.7,14.5-22.6,30.2.1,16.2,12.4,24.5,32.4,21.8,10.5-1.5,10.7-1.6,11.4-5.8.4-2.1.9-4.9,1.1-6.3l.5-2.6-5.8,1.9c-8.1,2.8-17.4,2.2-20.8-1.2-1.3-1.4-2.6-3.6-2.7-5l-.3-2.5,17.5-.3c12.4-.2,17.6-.6,18.2-1.5,1.5-2.4.8-14.1-1.1-18.2C1407.9,952.1,1397.7,948.2,1384.3,950.8Zm14.4,14.5c2.7,5.7,1.6,6.5-9.2,6.5-10.6,0-11.1-.4-7.2-6.1C1386.8,959,1395.6,958.8,1398.7,965.3Z"/><path d="M1557.3,950.8a29.63,29.63,0,0,0-22.4,35.7c3.1,12.9,14.6,18.7,32.2,16.3a81.84,81.84,0,0,0,9.3-1.6c1.6-.6,3.7-12.4,2.3-12.4a49.52,49.52,0,0,0-6.4,1.6,32.65,32.65,0,0,1-11.1,1.2c-4.7-.4-6-1-8.4-3.7-1.5-1.7-2.8-4-2.8-5.1,0-1.9.7-2,17.9-2h18l.7-4.8c1.5-10-2.8-20.2-10-23.6C1572.4,950.4,1562.9,949.6,1557.3,950.8Zm12.9,11.8c1.2,1.2,2.6,6.5,2.1,7.9-.3.9-3.3,1.3-10.4,1.3H1552l1.1-2.7c2.3-6.1,8.1-9.7,13.3-8.2A12.53,12.53,0,0,1,1570.2,962.6Z"/><path d="M1904.5,950.4c-1.1.3-3.6,1-5.6,1.5-3.5.9-3.7,1.2-4.3,6-.4,2.8-.5,5.3-.3,5.6s3.1-.3,6.2-1.3c9.9-2.8,18.5-.4,18.5,5.1,0,2.1-.5,2.3-10.4,2.7-9,.4-11.2.9-16.3,3.4-7.3,3.6-10.3,7.9-10.3,14.4,0,8.9,6.7,15,16.5,15,5.3,0,12.1-2.6,14.4-5.3,2-2.5,2.8-2.1,2.3,1.3l-.4,3h7.1c4.9,0,7.3-.4,7.5-1.3,2-7.6,5.6-29.4,5.6-33.7,0-10.8-6.4-15.9-20.9-16.6C1909.9,950.1,1905.6,950.1,1904.5,950.4Zm12.5,29.5a19.34,19.34,0,0,1-1.7,4.6c-3.3,7-12.6,9.8-15.9,4.8-2.2-3.4-.6-7.1,3.9-9C1907.2,978.6,1917,978.3,1917,979.9Z"/><path d="M339.4,951.8c-5.6,1.7-12.7,7.3-15.9,12.4-2.8,4.6-3,5.5-3,15.1,0,9.3.2,10.5,2.7,14.2a19.39,19.39,0,0,0,8.2,6.8c5.2,2.5,6.3,2.7,15.8,2.3,8-.3,11.2-.9,14.4-2.6,10.6-5.5,15.7-13.8,15.7-25.5.1-10.5-3.6-17.1-11.8-21.5C362,951.1,344.3,950.3,339.4,951.8ZM355,963.3c5.6,2.9,6.5,14.5,1.7,21.7a18.18,18.18,0,0,1-5.9,5.1c-3.3,1.6-4,1.7-7.3.3-5.1-2.2-7.2-7.3-5.7-14.3,1.3-6.2,3.6-9.9,7.7-12.4C349.2,961.4,351.2,961.3,355,963.3Z"/><path d="M397.5,952c-.5,1.4-10.5,48.4-10.5,49.3,0,.3,4,.5,8.8.5h8.8l2.9-13.3c4.1-19.6,6.3-23.7,12.7-23.7,3.3,0,4.8,1.8,4.8,5.7,0,2.7-2.7,17.1-5.5,29-.5,2.3-.4,2.3,8.4,2.3,8.4,0,8.9-.1,9.4-2.3.4-1.2,1.8-7.8,3.2-14.7,3.6-16.8,5.5-20,11.7-20,5.7,0,6,4.4,1.9,23.7l-2.9,13.3h8.3c7.1,0,8.4-.3,8.9-1.8,1.6-5.1,6.6-30.8,6.6-33.7,0-9.8-5.8-15.5-15.6-15.5-6.1,0-10.2,1.7-15.2,6.3-2.2,2-2.2,2-3.7.1a8.12,8.12,0,0,1-1.5-2.4c-.1-1.7-6.4-4-11.2-4-5.4,0-9.8,1.9-14.5,6.2l-2.1,2,.5-4.1.6-4.1h-7.2C400.3,950.8,397.8,951.2,397.5,952Z"/><path d="M489.9,986l-7.4,35.3,8.4.3c4.6.2,8.6.1,8.8-.2s1.6-5.6,3-11.8c3.5-16.5,2.9-15.5,6.6-12,4.7,4.4,6.9,5.2,13.9,5.2,10.7-.1,18.2-5.1,23-15.5,3.3-7.1,3.3-21.1.1-27.2-3.7-6.9-7.4-8.8-17-8.8-7.6,0-8.5.2-12.8,3.3l-4.6,3.2.7-3.5.6-3.5H497.4Zm36.6-21.6c2.1.8,4.5,5.6,4.5,9,0,8.3-6.1,16.4-12.3,16.4-10.2,0-12.7-14-4-22.6C518.1,963.8,522.3,962.8,526.5,964.4Z"/><path d="M1008.1,952.5c-6.7,2.4-14.5,10.5-16.5,17.2-4,13.6-.1,24.7,10.8,30.4,3.3,1.7,5.8,2.1,12.6,2.1,13.9,0,14.2-.2,15.6-9.8l.7-4.9-2.9.9c-5.3,1.6-12.1,1-15.1-1.2-8.4-6.2-4.7-20.6,6-23.5,3.7-1,9.3-.3,13.8,1.5,1.3.6,2-.3,3.3-4,2.4-7.2,2.2-8-2.8-9.3C1027.3,950.3,1013.4,950.7,1008.1,952.5Z"/><path d="M1117.5,952c-.2.7-2.5,11.4-5,23.8s-4.9,23.3-5.1,24.2c-.5,1.6.4,1.8,8.4,1.8h8.9l2.2-10.8c3.3-15.8,4.8-19.7,8.7-23.2,6.2-5.4,13.4-3.2,13.4,4.1,0,1.4-1.3,8.7-2.9,16.2l-2.9,13.7h8.9a82.87,82.87,0,0,0,8.9-.3c0-.2,1.3-6.9,3-14.8,3.5-16.8,3.7-21.8,1-27.6s-6.9-8.3-14.3-8.3c-6,0-9.7,1.3-15.5,5.7l-3.2,2.4.6-4,.7-4.1h-7.7C1120.3,950.8,1117.8,951.2,1117.5,952Z"/><path d="M1232.8,953.3c-10.8,5.7-16.6,21-13.5,35.8.9,4.2,5.6,10.1,9.8,12.3,6,3.1,17.7,1.4,23.2-3.4,2.2-1.9,2.2-2.2-.8,11-1.4,6.1-2.5,11.5-2.5,11.9s3.8.9,8.5.9c8,0,8.5-.1,9-2.3.3-1.2,3.4-16.2,7-33.2s6.7-31.8,6.9-32.8c.4-1.6-.3-1.8-7.7-1.5l-8.1.3-1.1,4.3-1,4.2-2.9-3.6c-3.7-4.7-8-6.4-15.8-6.4C1239.1,950.9,1236.3,951.5,1232.8,953.3Zm20.8,11.7c4.3,2,5.7,9.7,3,16.1-3.2,7.8-12.8,11.4-17.3,6.4-2.8-3.1-3.4-6.2-2.2-11.8s4.1-9.7,8.3-11.4C1248.4,963,1249.7,963.1,1253.6,965Z"/><path d="M1734.4,951.9c-5.3,1.5-12.7,7.2-15.6,11.9-3.3,5.3-5.2,14.6-4.3,20.4,2.2,12.8,10.1,18.5,25.7,18.6,10.8,0,17.9-2.4,23.7-8,6-5.8,7.4-9.3,7.9-19.1.4-7.2.1-9.2-1.6-12.5-4.6-8.9-11.6-12.5-24.6-12.3A55.47,55.47,0,0,0,1734.4,951.9Zm16.4,12.4c3.7,3.1,4.8,8.5,3.2,14.6-3.3,12.1-14,16.4-19.7,7.9-3.7-5.3-2.6-14.1,2.4-20.1C1741.3,961.3,1746.2,960.4,1750.8,964.3Z"/><path d="M1787.2,975.5c-2.9,13.7-5.2,25.1-5.2,25.5s4,.8,8.8.8h8.8l2.9-13.8c1.5-7.5,3.4-15.1,4.2-16.9,2.6-6.4,10.3-8.6,12.5-3.7,1,2.2.7,5-1.7,16.8-1.5,7.7-3,14.9-3.3,15.8-.4,1.6.5,1.8,8.6,1.8h8.9l2.2-10.8c4.4-21.4,6.8-26.2,12.9-26.2s6.4,3.2,2.7,20.8c-1.4,6.4-2.7,12.7-3,13.9-.5,2.2-.3,2.3,7.9,2.3h8.4l2-8.8c6.3-27.6,6.4-31.8.8-38-3.1-3.3-3.9-3.6-9.8-4-7.3-.5-11.1.9-16.5,6-3,2.9-3.1,2.9-3.8.9-.3-1.1-2-3.2-3.6-4.6-2.5-2-4.1-2.5-8.7-2.5-5.9,0-10.1,1.8-15,6.3l-2.3,2.1.7-4.2.7-4.2h-15Z"/><path d="M672.6,963.4,678,975l-9.6,11.7c-5.4,6.4-10.4,12.4-11.2,13.3-1.4,1.7-.9,1.8,9.1,1.8h10.6l5.3-7.4c2.9-4.1,5.5-7.5,5.8-7.5s1.7,3.2,3.1,7.1l2.6,7.3,9.6.3,9.6.3-5.4-12.3c-3-6.8-5.5-12.8-5.5-13.3s3.9-5.6,8.8-11.1,9.3-10.8,10.1-11.7c1.2-1.6.6-1.7-8.8-1.7H702l-5.2,7c-2.9,3.8-5.3,6.8-5.5,6.7s-1.3-3.2-2.7-6.8l-2.4-6.4-9.6-.3-9.5-.3Z"/><path d="M1190,952.5c0,.5-2.3,11.3-5,24.2s-5,23.7-5,24.2,3.8.9,8.5.9,8.5-.2,8.5-.4,2.3-11.1,5-24,5-24,5-24.6-3.4-1-8.5-1C1193.8,951.8,1190,952.1,1190,952.5Z"/><path d="M1294.7,965c-5.7,27.8-2.2,37.8,13.1,37.8,6.1,0,10.3-1.6,15.1-5.6l3.4-2.8-.7,3.7-.7,3.7h8.1c4.4,0,8-.2,8-.5s2.3-11.1,5-24.1,5-24,5-24.5-3.5-.9-8.7-.7l-8.6.3-2.8,12.6c-4.1,19.1-7.6,24.4-15.6,23.7-3-.2-4.1-.9-5.1-3.1-1.2-2.5-1-4.5,1.3-16,1.5-7.3,2.9-14.2,3.2-15.5.5-2.2.3-2.2-8.4-2.2h-8.9Z"/><path d="M1036.1,1030.8c-34.9,2.7-64.8,5.1-66.5,5.4-7.6,1.5-15.6,11.4-15.6,19.2,0,1.7,3.6,20.9,8.1,42.5,7,34.4,8.4,39.7,10.5,41.9l2.4,2.5,36.5.3c34.9.3,36.5.2,36.5-1.6a7.09,7.09,0,0,0-1.4-3.7c-1.2-1.7-3.8-1.9-34.2-2.7-18.1-.5-33.2-1.2-33.5-1.6-.9-1-10.3-41.8-14.4-62.1l-3.5-17.4,1.9-4.3c1.4-3,3-4.8,5.3-5.9,2.1-1,26.8-4.2,69.3-9C1127.1,1024.1,1127,1024,1036.1,1030.8Z"/><path d="M1179.5,1034.5c39.9,5,59.8,7.9,61.3,9a11.44,11.44,0,0,1,3.7,4.6c1.2,2.9.6,6.6-6,40.2-4.1,20.3-8.2,38.6-9.2,40.5-2.7,5.2-5.9,5.9-27.3,5.9-10.2.1-22.8.4-28.2.7-8.9.6-9.7.9-10.7,3.1a17.49,17.49,0,0,0-1.1,2.8c0,.3,16.2.5,35.9.5h36l1.8-2.4c2.2-2.8,18.5-79.4,18.5-86.8-.1-6.9-3.6-12.4-9.9-15.7-1.8-.9-117.2-10.3-122.2-10C1121.2,1027,1147.1,1030.4,1179.5,1034.5Z"/><path d="M1092.8,1083.5a3.85,3.85,0,0,0-2.4,2.8c-.6,2.3-.7,2.3-2.9.9s-2.7-1.3-6.4.6c-3.2,1.6-4.1,2.6-4.1,4.6,0,2.2-.2,2.3-2,1.4-1.6-.9-2.6-.5-5.6,2.3-3.3,3-3.6,3.5-2.4,5.7s1.1,2.2-1.3,1.6-2.9-.1-5.3,3.9c-2.5,4.4-2.6,4.7-.9,6.5s1.7,2-.8,2c-2.1,0-2.7.6-3.2,3.2-.4,1.8-.9,4.1-1.1,5.1q-.6,1.65,1.8,2.7l2.3.9-2.2.7c-2,.5-2.3,1.3-2.3,5.5v4.9h12.7l.5-7.8c2-34.5,45.1-48,66.1-20.6a38.06,38.06,0,0,1,7.4,25l-.5,6.4h4.7c7.9,0,9.1-.7,9.1-5.1,0-3.3-.4-4.1-3.2-5.5l-3.2-1.6,2.7-2c4.8-3.5,2.8-10.8-2.9-10.8-3,0-3-.7-.3-3.6,2.1-2.3,2.1-2.3.2-5.6-1.8-2.9-2.4-3.3-5.8-3s-3.7.1-3-1.5c1.9-4.6,1.7-6-1.4-8.2-2.9-2.1-3.2-2.1-6.1-.6l-3,1.6v-4c0-3.6-.3-4-3.6-5.1-3-1-3.8-.9-5.4.5-2.1,1.9-4,1.3-4-1.5,0-3.6-8.7-4.3-10.8-.9l-1.4,2.1-1.4-2.1C1099.9,1082.9,1097,1082.4,1092.8,1083.5Z"/><path d="M1089.5,1101.6a46.51,46.51,0,0,0-9.8,6.6c-7,6.9-11.8,19.9-10.1,27.2,1.1,4.4,3.8,5.8,4.7,2.4.7-2.6,4.3-2.3,4.1.3-.1,1.2.6,1.7,2.6,1.7,2.6,0,2.7-.1,2.2-4.9-1.9-20.2,23.1-31.1,36.5-15.8,4.9,5.6,6.5,14.3,3.8,20.9-.6,1.4-.2,1.8,1.7,1.8a6.17,6.17,0,0,0,3.6-1.2c1-1,1.7-1,3.2,0,5,3.1,6.6.2,5.8-10.8-.7-8.7-4.2-16.3-10.2-21.8-7.4-6.8-11.8-8.5-22.6-8.9C1096.1,1098.7,1095.1,1098.9,1089.5,1101.6Z"/><path d="M960.8,1138.4c-15.5,26.5-18.9,33.4-25.2,51.7s-9.8,31.7-11.1,42.7c-.8,7.8,2.9,43.9,5,47.9a13.81,13.81,0,0,0,4.8,5.1c3.1,2,6.3,2,170.6,2,164.9,0,167.4,0,170.6-2a13.93,13.93,0,0,0,4.4-4.7c1.8-4,4-27.5,4.1-42.9,0-12.6-.2-13.7-4-25.5-7.6-24-18.2-48.8-27.5-64.9l-8.8-15.2-1.9,5.1c-3.3,8.8-1.8,8.5-45.1,9.1l-38,.5-1.5,2.2-1.4,2.3h40.6c35.5,0,41,.2,43.1,1.6,2.6,1.7,14.5,23.4,14.5,26.4,0,2.3-2.8,4-6.4,4a18.26,18.26,0,0,0-5.3,1.2c-2.5,1.2-1.9,1.3,6.2,1.8l9,.5L1238,1194l-19.5,6.6,16.4.1c9,.1,16.2.3,16,.5-.6.6-60.2,3.9-62.4,3.4-1.1-.2,11-3.7,26.9-7.8s28.2-7.6,27.4-7.8-13.5.6-28.2,1.8-28.1,2-29.9,1.9,7.8-1.8,21.3-3.9,22.9-3.8,21-3.9-31.6,1.5-66,3.4l-62.5,3.5-56.9-3.5c-31.3-2-58.3-3.5-60-3.3s8.4,2.1,22.4,4.3,24.4,4.1,23,4.3-16-.9-32.4-2.2-30.1-2.4-30.3-2.3,13.2,4.1,29.7,8.7,29.8,8.6,29.5,8.8-14.1-.4-30.7-1.4l-30.3-1.9,15-.5,15-.5-19.8-7-19.7-7,9.2-.5,9.3-.5-5.2-2.3a27.71,27.71,0,0,0-7.6-2.2c-5.4,0-5.2-2.1,1.1-15.3,5.1-10.7,6.3-12.5,9.4-14s8.2-1.7,44.3-1.7h40.7l-1.4-2.3-1.5-2.2-39.2-.5-39.1-.5-3-3.1a21.29,21.29,0,0,1-4.4-6.9l-1.3-3.8Zm149.8,60.8c4.2,4.2,4.5,8.2.9,12.4-3,3.6-6.9,4.5-11.2,2.7-3.7-1.6-5.3-4.1-5.3-8.7C1095,1196.6,1104.2,1192.8,1110.6,1199.2Zm-123.7,10.5c20.6,4.5,37.7,7.8,38,7.5a33.2,33.2,0,0,0,2.3-4.7c1-2.8,1.8-3.7,2.2-2.7,1.4,4,4.1,16.2,7.6,35.2,2.2,11.6,4.6,22.1,5.5,23.4a17,17,0,0,0,5.8,4.6c4.2,2.3,4.4,2.3,54.8,2.6l50.5.3,3.4-2.3c6.2-4.3,6.9-6.2,10.8-28.1,1.9-11.3,3.9-20.4,4.4-20.1s.8-1.8.8-4.6c0-4.4.3-5.1,1.6-4.6,5.5,2.1,10.1,1.5,46.5-6.3,20.6-4.5,38.4-8.1,39.6-8.1,1.7,0,2.8,2.1,6.8,13.7,2.6,7.6,5,14.4,5.2,15,.4,1-9.1,1.3-43.8,1.5l-44.4.3,42.4,6.7c23.3,3.8,42.6,7,42.8,7.2.4.4-3.6,24.9-4.2,25.5-.3.2-34.4,3.4-76,7.1l-75.5,6.8-85-5.7c-46.8-3.1-85.4-6.1-85.9-6.6-.8-.9-7.3-33.6-6.8-34.1.1-.1,19.3-1.6,42.7-3.4s42.7-3.4,42.9-3.6-19-.4-42.8-.4c-34.2,0-43.2-.3-42.9-1.3.3-.6,2.7-7.6,5.4-15.4,3.7-11,5.2-14.2,6.4-13.8C948.8,1201.5,966.3,1205.3,986.9,1209.7Zm105.1-4.9c0,8.1,4.9,13,12.9,13,7,0,13.2-7.7,11.5-14.4l-.6-2.6h23.4c19.5,0,23.7.3,25.6,1.6a4.9,4.9,0,0,1,2.2,3.3c0,3.6-10.8,58.9-11.9,61a4.34,4.34,0,0,1-2.9,2.2c-.9,0-22.8,0-48.7-.1-37.8-.1-47.4-.4-49.1-1.5s-2.9-5.7-7.7-29.7c-3.2-15.5-5.7-29.2-5.7-30.3a8.79,8.79,0,0,1,1.6-4.3c1.5-2.2,1.8-2.2,25.5-2.2H1092Z"/><path d="M923.2,1149.4c-1.2.8-4.5,5.4-7.3,10.2s-6,10.2-7.1,11.9l-2,3.3h27.7l1.6-2.8c9.9-17.5,10.6-19.9,2-7l-5.2,7.8H922.5c-5.8,0-10.5-.3-10.5-.6,0-1,10.1-18.8,11.8-20.7,1.2-1.3,3.2-1.7,9.1-1.8,7.1-.1,7.3-.2,3.1-1C929,1147.5,925.6,1147.7,923.2,1149.4Z"/><path d="M691,1149.5c0,.9,21.5,29.5,33.4,44.3,77.7,97.2,179.4,191.4,290.5,269.5,18.5,13,56.4,38,64.1,42.3,11.8,6.7,27.9,7.8,41,3,16.9-6.2,110.5-74.3,163-118.7,38.1-32.2,62.1-54.1,96.1-88.1,36.7-36.6,56.8-58.5,83.9-91.5,12.1-14.6,46-59.5,46-60.8,0-.4-15.5-.7-34.4-.7h-34.4l-11.3,14.2c-58.2,73.3-134.6,151.9-202.4,208.4-31.5,26.2-73,57.1-84.5,62.9a82.91,82.91,0,0,1-76.6-1c-21.5-11.7-119.2-91-160.4-130.1-3-2.9-6.8-6.5-8.5-8-35-31.8-89.2-88.4-125.3-130.7l-13.5-15.7H724.4C706,1148.8,691,1149.1,691,1149.5Z" style="fill:#fa5252"/><path d="M1279.3,1163.4c4.3.7,8.5,1.8,9.2,2.4,1.5,1.3,9,22.8,8.2,23.6-.5.5-18.5-2.4-19.8-3.2-.4-.2-2.6-5.1-5-10.9s-4.4-10.3-4.6-10.2c-.4.4,6.8,22,7.6,22.9s25,5.3,25.7,4.5c.9-.9-7.5-24.3-9.6-26.9-1.7-2.2-8.4-3.7-15.5-3.6C1272.6,1162,1273.6,1162.4,1279.3,1163.4Z"/><path d="M985,1291.9c-12.9.3-28,.8-33.5.9l-10,.3,11,.7c6.1.5,21.7,1.1,34.8,1.5l23.7.7v6.2c0,9.9-2.3,16.1-8.4,22.1-7.1,7.1-11.5,8.5-28.3,8.6-12.1,0-13.8-.2-18.6-2.4-10.4-4.7-16-13-17.6-25.8l-1-7.4.3,9c.3,10.7,2.9,16.8,9.6,22.9,7.8,7,11.5,8,28.5,8.1,17.9,0,22.2-1.2,30.1-8.7,7.5-7.1,9.6-12.6,10.2-26.6l.5-11.2-3.9.2C1010.2,1291.1,997.9,1291.5,985,1291.9Z"/><path d="M1242.5,1291.9c-12.6.3-27.5.8-33,.9l-10,.3,10,.7c5.5.4,21.2,1.1,34.9,1.5l24.9.7-.6,8c-.9,13.5-7.7,23.4-18.6,27.3-6.2,2.1-28.5,2.2-34.9.1-10.3-3.5-17.7-13.3-19.2-25.4l-.7-6.7-.2,7.5c-.1,6,.4,8.5,2.3,12.6a32,32,0,0,0,15.5,15.3c5.3,2.5,6.5,2.6,21.1,2.6,13.7,0,16-.2,20.1-2.1a34.31,34.31,0,0,0,15.9-15.6c2.8-5.7,3-6.8,3-17.5v-11.3l-3.7.2C1267.2,1291.1,1255.2,1291.5,1242.5,1291.9Z"/><path d="M773,1339.5c-15.1,19-28.4,34.9-29.5,35.3s-6.9.8-13,.8c-21.1.1-36.9,6.6-51.6,21.2-7.2,7.1-9.4,10-13.3,18-7.3,15-9.2,29.2-6,44.8,1.9,9.3,4.1,13.9,5.7,12.3.6-.6,9.7-11.8,20.2-24.9,13.4-16.7,19.7-23.8,21.3-24,3-.5,33.4,9.3,36,11.5,2.9,2.5,18.2,29.5,18.2,32.1,0,1.3-7.2,11.1-17.8,24.4-20.9,26.2-21.9,27.6-20.1,28.2,4,1.3,12.3,1.5,19.7.6,16-2,28.2-8.1,40.3-20.1,6.4-6.3,8.5-9.2,12.7-18,6.6-13.4,8.7-23.3,7.9-37.4a103,103,0,0,0-2.5-16.9c-1.1-3.8-1.8-7.6-1.4-8.5s12-15.9,25.9-33.4l25.4-31.9-24.7-24.1c-13.5-13.3-24.9-24.3-25.3-24.4S788.1,1320.4,773,1339.5Z"/><path d="M1366.8,1337.5c-6.8,6.5-17.5,16.5-23.8,22.2s-12.1,10.9-12.8,11.6c-1.1,1,.5,3.5,8.4,13.1,5.3,6.5,10.4,12.7,11.2,13.7,1.4,1.6,1.1,2.6-3.1,11.5-7.3,15.1-9.9,26.7-10,43.7,0,9.6.6,16.5,1.7,22,8,36.9,35.2,65.9,72.1,77.2,8.4,2.5,10.3,2.7,27.5,2.7,16.3.1,19.5-.2,26.9-2.2,37.9-10.3,65.9-40.4,74.3-79.7,1.9-9.2,1.6-31.4-.6-41-9.5-41.5-42-72.3-83.4-79.1-12.1-2-29.2-1.3-41,1.6-4.6,1.1-8.5,2-8.7,2s-6-7-13-15.5-12.8-15.5-13-15.5S1373.5,1331.1,1366.8,1337.5Zm78.7,64.4c11,1.1,20.3,2.3,20.6,2.7s6.5,8,13.8,16.9l13.2,16.3L1491,1459c-1.2,12.1-2.7,21.8-3.3,22.5s-8.4,7-17.2,14.2c-13.1,10.7-16.5,13-18.5,12.7-1.4-.3-10.6-1.3-20.5-2.2s-18.6-2-19.3-2.3-7.3-8.1-14.7-17.1c-11.9-14.6-13.5-16.9-13.1-19.5.3-1.7,1.3-11.3,2.2-21.3l1.8-18.4,5-4.3c18.1-15.4,28.4-23.4,30.1-23.4C1424.6,1399.8,1434.5,1400.7,1445.5,1401.9Z"/></g></g></svg>