<svg xmlns="http://www.w3.org/2000/svg" viewBox="0 0 331.69 322"><title>clearedAsset 3full-green-2</title><g id="Layer_2" data-name="Layer 2"><g id="Layer_1-2" data-name="Layer 1"><path d="M321.89,155A161.1,161.1,0,0,1,106.11,312.4h0c3.94-.17,7.8-.26,11.61-.26q11.64,0,28.37,1.21,28.13,1.69,33.46,1.7a129.2,129.2,0,0,0,13.09-.73h0l4.12-13.82h0A131.54,131.54,0,0,1,177.17,302a217.92,217.92,0,0,1-34.61-3.15h0q8.24-21.33,19.62-60.37t18.41-72.75h46.26q15,.49,18.41,2.19,5.82,2.91,5.82,8.73,0,2.42-1.7,16.24h13.34q5.56-33.21,13.09-63.77H262.72q-3.41,13.83-8.48,17.22T232,149.68H184.73q6.79-30.06,19.91-77.1,6.3-22.8,7.77-28.37h48.43l5.08.24h0l6.05-.09h0A160.51,160.51,0,0,1,321.89,155Z" style="fill:#40c057"/><path d="M80.14,69.18q-38.07,41-38.07,89.72,0,25,8.24,38.55,6.06,10.19,15.76,10.18a15.2,15.2,0,0,0,10.67-3.76A11.59,11.59,0,0,0,80.86,195q0-5.09-7-17.94-5.58-10.43-6.79-16a81.58,81.58,0,0,1-2.42-19.4q0-23.52,14.42-46.43a106,106,0,0,1,38.8-36.5Q142.2,45.18,174.7,44.21h0L137.6,189.45Q117,266.31,109.47,281.1a34.34,34.34,0,0,1-10.54,12.37q-5.07,3.73-18,7.21h0A160.94,160.94,0,0,1,0,163.73C-1.49,72.48,74-2.28,165.2.05a160.22,160.22,0,0,1,87.2,28.39H180.52Q118.2,28.45,80.14,69.18Z" style="fill:#40c057"/><path d="M303.93,86.15h0" style="fill:#40c057"/><path d="M316.26,86.17H303.21q4.11-20.34,4.11-26.16,0-8-5.55-11.87t-21-3.87l-15.44.24-5.07-.24H212q-1.45,5.56-7.74,28.34-13.08,47-19.85,77h47.07q17.15,0,22.21-3.39t8.45-17.2h13q-7.49,30.52-13,63.71H248.85q1.68-13.8,1.69-16.23,0-5.81-5.8-8.72-3.37-1.69-18.34-2.18H180.29q-7,33.68-18.35,72.67T142.4,298.62a216.32,216.32,0,0,0,34.48,3.15,130.74,130.74,0,0,0,19.53-1.45l-4.11,13.81a128.14,128.14,0,0,1-13.05.72q-5.31,0-33.34-1.69-16.68-1.21-28.27-1.21a309.36,309.36,0,0,0-50,4.36L70.52,303q21.49-4.59,28.39-9.69a34.3,34.3,0,0,0,10.51-12.35q7.49-14.78,28-91.57l37-145.1q-32.38,1-56.66,14.53A105.78,105.78,0,0,0,79.09,95.26q-14.37,22.89-14.37,46.39A81.85,81.85,0,0,0,67.13,161q1.22,5.58,6.77,16,7,12.84,7,17.92a11.61,11.61,0,0,1-4.11,8.84,15.11,15.11,0,0,1-10.63,3.76q-9.68,0-15.71-10.18-8.22-13.56-8.22-38.51,0-48.69,37.94-89.63,37.93-40.69,100-40.7H273a328.85,328.85,0,0,0,34.07-1.94q5.55-.48,23.92-5.08Q318.69,72.13,316.26,86.17Z" style="fill:none;stroke:#40c057;stroke-miterlimit:10"/></g></g></svg>